<svg width="133" height="132" viewBox="0 0 133 132" fill="none" xmlns="http://www.w3.org/2000/svg">
<rect x="0.648438" y="0.292969" width="131.615" height="131.615" rx="21.8703" fill="#073B89"/>
<path d="M40.0078 39.653C40.0078 37.8994 40.7044 36.2176 41.9444 34.9776C43.1844 33.7376 44.8662 33.041 46.6198 33.041H73.0679C73.9446 33.0412 74.7854 33.3896 75.4052 34.0097L91.9353 50.5397C92.5553 51.1596 92.9037 52.0003 92.9039 52.8771V92.5491C92.9039 94.3027 92.2073 95.9845 90.9673 97.2245C89.7273 98.4645 88.0455 99.1611 86.2919 99.1611H46.6198C44.8662 99.1611 43.1844 98.4645 41.9444 97.2245C40.7044 95.9845 40.0078 94.3027 40.0078 92.5491V39.653ZM84.9232 52.8771L73.0679 41.0217V52.8771H84.9232ZM66.4559 39.653H46.6198V92.5491H86.2919V59.4891H69.7619C68.8851 59.4891 68.0442 59.1408 67.4242 58.5208C66.8042 57.9008 66.4559 57.0599 66.4559 56.1831V39.653ZM78.7112 67.0697C79.331 67.6897 79.6792 68.5304 79.6792 69.4071C79.6792 70.2837 79.331 71.1245 78.7112 71.7444L65.4872 84.9685C64.8672 85.5882 64.0265 85.9364 63.1499 85.9364C62.2732 85.9364 61.4325 85.5882 60.8125 84.9685L54.2005 78.3564C53.8847 78.0515 53.6329 77.6867 53.4596 77.2833C53.2864 76.88 53.1952 76.4462 53.1913 76.0072C53.1875 75.5682 53.2712 75.1329 53.4374 74.7266C53.6036 74.3203 53.8491 73.9512 54.1595 73.6408C54.4699 73.3304 54.8391 73.0849 55.2453 72.9186C55.6516 72.7524 56.087 72.6688 56.5259 72.6726C56.9649 72.6764 57.3987 72.7676 57.8021 72.9409C58.2054 73.1141 58.5702 73.366 58.8752 73.6817L63.1499 77.9564L74.0365 67.0697C74.6565 66.45 75.4972 66.1018 76.3739 66.1018C77.2505 66.1018 78.0913 66.45 78.7112 67.0697Z" fill="white"/>
</svg>
