<svg width="50" height="50" viewBox="0 0 50 50" fill="none" xmlns="http://www.w3.org/2000/svg">
<path d="M38.3424 9.95106L25.0024 5.5293L11.6623 9.95106C9.9258 10.5277 8.75781 12.1424 8.75781 13.9683V24.7937C8.75781 35.5297 20.3873 42.1786 23.953 43.9622L24.9731 44.4707L26.0258 44.0451C30.6018 42.2046 41.2469 36.662 41.2469 24.9675V13.9683C41.2469 12.1408 40.0789 10.5277 38.3424 9.95106ZM39.6224 24.9675C39.6224 35.671 29.3137 40.9749 25.0413 42.6903C21.6885 41.0139 10.3823 34.5989 10.3823 24.7921V13.9667C10.3823 12.8426 11.1019 11.8468 12.174 11.4927L25.0024 7.23985L37.8307 11.4927C38.9012 11.8484 39.6224 12.8426 39.6224 13.9667V24.9675ZM25.0024 16.777C22.7622 16.777 20.9412 18.598 20.9412 20.8381C20.9412 22.8005 22.3382 24.4412 24.1901 24.8181V31.3971H25.8146V24.8181C27.6665 24.4412 29.0635 22.8005 29.0635 20.8381C29.0635 18.598 27.2425 16.777 25.0024 16.777ZM25.0024 23.2748C23.6589 23.2748 22.5657 22.1816 22.5657 20.8381C22.5657 19.4947 23.6589 18.4015 25.0024 18.4015C26.3458 18.4015 27.439 19.4947 27.439 20.8381C27.439 22.1816 26.3458 23.2748 25.0024 23.2748Z" fill="black" stroke="black" stroke-width="0.5"/>
</svg>
