<svg width="57" height="56" viewBox="0 0 57 56" fill="none" xmlns="http://www.w3.org/2000/svg">
<rect x="0.875" y="-0.00976562" width="56" height="56" rx="8" fill="#F0F5FF"/>
<path d="M19.875 25.7402H24.375V35.4902H19.875C19.6761 35.4902 19.4853 35.4112 19.3447 35.2706C19.204 35.1299 19.125 34.9391 19.125 34.7402V26.4902C19.125 26.2913 19.204 26.1006 19.3447 25.9599C19.4853 25.8193 19.6761 25.7402 19.875 25.7402V25.7402Z" stroke="#073B89" stroke-width="2" stroke-linecap="round" stroke-linejoin="round"/>
<path d="M24.375 25.7402L28.125 18.2402C28.519 18.2402 28.9091 18.3178 29.273 18.4686C29.637 18.6194 29.9677 18.8403 30.2463 19.1189C30.5249 19.3975 30.7459 19.7282 30.8966 20.0922C31.0474 20.4562 31.125 20.8463 31.125 21.2402V23.4902H36.9258C37.1385 23.4902 37.3488 23.5355 37.5427 23.6229C37.7365 23.7104 37.9096 23.8381 38.0503 23.9975C38.1911 24.157 38.2963 24.3445 38.3591 24.5478C38.4218 24.751 38.4406 24.9652 38.4142 25.1763L37.2892 34.1763C37.2439 34.5391 37.0676 34.8728 36.7935 35.1148C36.5194 35.3567 36.1664 35.4902 35.8008 35.4902H24.375" stroke="#073B89" stroke-width="2" stroke-linecap="round" stroke-linejoin="round"/>
</svg>
