<svg width="51" height="50" viewBox="0 0 51 50" fill="none" xmlns="http://www.w3.org/2000/svg">
<path d="M38.6173 43.8066H11.6393C11.2418 43.8066 10.8606 43.6487 10.5796 43.3677C10.2985 43.0866 10.1406 42.7054 10.1406 42.3079V9.33659C10.1406 8.93911 10.2985 8.55791 10.5796 8.27685C10.8606 7.99579 11.2418 7.83789 11.6393 7.83789H29.6252L40.116 18.3288V42.3079C40.116 42.5047 40.0773 42.6996 40.002 42.8815C39.9266 43.0633 39.8163 43.2285 39.6771 43.3677C39.5379 43.5068 39.3727 43.6172 39.1909 43.6926C39.009 43.7679 38.8142 43.8066 38.6173 43.8066Z" stroke="#061C3D" stroke-width="2" stroke-linecap="round" stroke-linejoin="round"/>
<path d="M29.625 7.83789V18.3288H40.1174" stroke="#061C3D" stroke-width="2" stroke-linecap="round" stroke-linejoin="round"/>
<path d="M20.6406 30.3184H29.6328" stroke="#061C3D" stroke-width="2" stroke-linecap="round" stroke-linejoin="round"/>
<path d="M25.1328 25.8223V34.8145" stroke="#061C3D" stroke-width="2" stroke-linecap="round" stroke-linejoin="round"/>
</svg>
