<svg width="101" height="101" viewBox="0 0 101 101" fill="none" xmlns="http://www.w3.org/2000/svg">
<path d="M69.6818 46.7962C72.2195 42.4716 73.3154 37.4517 72.8109 32.4629C72.0651 25.0296 67.9151 18.4587 61.1318 13.9629L56.5276 20.9046C61.1901 23.9962 64.0276 28.4004 64.5193 33.2962C64.746 35.5716 64.4627 37.869 63.6901 40.0211C62.9174 42.1733 61.6748 44.1263 60.0526 45.7379L55.0859 50.7046L61.8276 52.6837C79.4609 57.8504 79.6651 75.5837 79.6651 75.7629H87.9984C87.9984 68.3087 84.0151 53.7421 69.6818 46.7962Z" fill="white"/>
<path d="M40.082 50.765C49.2737 50.765 56.7487 43.29 56.7487 34.0983C56.7487 24.9066 49.2737 17.4316 40.082 17.4316C30.8904 17.4316 23.4154 24.9066 23.4154 34.0983C23.4154 43.29 30.8904 50.765 40.082 50.765ZM40.082 25.765C44.6779 25.765 48.4154 29.5025 48.4154 34.0983C48.4154 38.6941 44.6779 42.4316 40.082 42.4316C35.4862 42.4316 31.7487 38.6941 31.7487 34.0983C31.7487 29.5025 35.4862 25.765 40.082 25.765ZM46.332 54.9316H33.832C20.0445 54.9316 8.83203 66.1441 8.83203 79.9316V84.0983H17.1654V79.9316C17.1654 70.74 24.6404 63.265 33.832 63.265H46.332C55.5237 63.265 62.9987 70.74 62.9987 79.9316V84.0983H71.332V79.9316C71.332 66.1441 60.1195 54.9316 46.332 54.9316Z" fill="white"/>
</svg>
