<svg width="18" height="18" viewBox="0 0 18 18" fill="none" xmlns="http://www.w3.org/2000/svg">
<path d="M17.9585 9.49488L15.6852 2.99464C15.3701 2.09241 14.5159 1.48592 13.5611 1.48592H9.75025V0.736063C9.74575 -0.24573 8.25396 -0.244979 8.25021 0.736063V1.48667H4.43936C3.48459 1.48667 2.63032 2.09316 2.31531 2.99464L0.0420011 9.49488C0.0142504 9.57445 0 9.96927 0 9.96927C0 11.8503 1.40329 13.3973 3.19508 13.4911C4.12586 13.5429 5.02063 13.2126 5.69865 12.5686C6.36766 11.9336 6.75017 11.0404 6.75017 10.1186C6.75017 10.1186 6.73442 9.56919 6.70442 9.48663L4.34561 2.99389C4.37636 2.99013 4.40786 2.98788 4.43936 2.98788H8.25021V16.4988H3.7501C2.76907 16.5033 2.76982 17.9962 3.7501 18H14.2504C15.2314 17.9955 15.2306 16.5025 14.2504 16.4988H9.75025V2.98788H13.5611C13.5926 2.98788 13.6241 2.98938 13.6548 2.99389L11.2953 9.48663C11.2653 9.56844 11.2495 10.1186 11.2495 10.1186C11.2495 11.0411 11.6328 11.9336 12.3011 12.5686C14.4079 14.596 18.0372 13.1331 17.9997 9.97002C17.9997 9.97002 17.9855 9.5752 17.9577 9.49563L17.9585 9.49488ZM4.92913 8.99273H1.8068L3.33834 4.61444L4.92913 8.99273ZM14.6621 4.61444L16.1937 8.99273H13.0713L14.6621 4.61444Z" fill="#073B89"/>
</svg>
