<svg width="133" height="133" viewBox="0 0 133 133" fill="none" xmlns="http://www.w3.org/2000/svg">
<rect x="0.783203" y="0.417969" width="131.615" height="131.615" rx="21.8703" fill="#073B89"/>
<path d="M82.8568 65.3756L94.9066 95.5002H89.005L85.7159 87.2844H74.515L71.2315 95.5002H65.3325L77.3796 65.3756H82.8568ZM59.5787 43.4668V48.944H76.0103V54.4212H70.6207C68.5082 60.7804 65.1366 66.6491 60.707 71.6771C62.6824 73.4397 64.825 75.0054 67.1044 76.3519L65.0477 81.495C62.1051 79.8261 59.353 77.8417 56.8401 75.5769C51.9478 80.0045 46.1542 83.3194 39.8581 85.2934L38.3902 80.0107C43.7848 78.2906 48.7558 75.4518 52.9787 71.6798C49.8531 68.1414 47.2497 64.1741 45.2476 59.8984H51.3821C52.9084 62.716 54.7387 65.3581 56.8401 67.7773C60.2637 63.8313 62.9617 59.3104 64.8094 54.4239L37.6699 54.4212V48.944H54.1015V43.4668H59.5787ZM80.1182 73.2764L76.7032 81.8072H83.5278L80.1182 73.2764Z" fill="white"/>
</svg>
