<svg width="18" height="18" viewBox="0 0 18 18" fill="none" xmlns="http://www.w3.org/2000/svg">
<path d="M14.0052 15.675C13.6975 15.3975 13.2171 15.4275 12.9469 15.7425C12.5191 16.23 11.9037 16.5075 11.2582 16.5075H3.75274C2.51433 16.5075 1.50109 15.495 1.50109 14.2575V3.75C1.50109 2.5125 2.51433 1.5 3.75274 1.5H7.1377C7.25779 1.5 7.38539 1.5 7.50547 1.515V5.25C7.50547 6.4875 8.51871 7.5 9.75711 7.5H14.1178C14.3505 7.5 14.5681 7.395 14.7107 7.2075C14.8533 7.02 14.8984 6.7875 14.8458 6.5625C14.6132 5.6475 14.1403 4.815 13.4723 4.1475L10.8604 1.5375C9.8697 0.5475 8.54873 0 7.14521 0H3.75274C1.68123 0 0 1.68 0 3.75V14.25C0 16.32 1.68123 18 3.75274 18H11.2582C12.3315 18 13.3597 17.535 14.0728 16.7325C14.3505 16.425 14.3204 15.945 14.0052 15.675ZM9.00657 1.995C9.29178 2.16 9.55447 2.3625 9.79464 2.6025L12.4065 5.2125C12.6392 5.445 12.8419 5.715 13.007 6H9.74961C9.33681 6 8.99906 5.6625 8.99906 5.25V1.995H9.00657ZM17.3602 13.5675L16.1518 14.775C16.0017 14.925 15.814 14.9925 15.6189 14.9925C15.4237 14.9925 15.2361 14.9175 15.086 14.775C14.7933 14.4825 14.7933 14.01 15.086 13.7175L16.0542 12.75H10.5002C10.0874 12.75 9.74961 12.4125 9.74961 12C9.74961 11.5875 10.0874 11.25 10.5002 11.25H16.0542L15.086 10.2825C14.7933 9.99 14.7933 9.5175 15.086 9.225C15.3787 8.9325 15.8516 8.9325 16.1443 9.225L17.3527 10.4325C18.2158 11.295 18.2158 12.705 17.3527 13.575L17.3602 13.5675Z" fill="#073B89"/>
</svg>
