<svg width="18" height="18" viewBox="0 0 18 18" fill="none" xmlns="http://www.w3.org/2000/svg">
<path d="M14.2476 2.9995H13.422C13.0733 1.29053 11.5586 0 9.74838 0H3.74938C1.68197 0 0 1.68197 0 3.74938V13.3883C0 13.9837 0.326196 14.5281 0.850358 14.8085C1.08882 14.9368 1.35052 14.9998 1.61148 14.9998C1.92343 14.9998 2.23463 14.909 2.50383 14.7298L4.71596 13.2548C5.23413 14.7058 6.6214 15.7474 8.24863 15.7474H12.5207L15.4932 17.7293C15.7631 17.9093 16.0736 18 16.3855 18C16.6465 18 16.9074 17.9363 17.1466 17.808C17.6716 17.5276 17.997 16.9832 17.997 16.3878V6.74888C17.997 4.68147 16.315 2.9995 14.2476 2.9995ZM1.67222 13.482C1.65797 13.491 1.61598 13.518 1.55824 13.4873C1.499 13.4558 1.499 13.4055 1.499 13.389V3.74938C1.499 2.50908 2.50833 1.49975 3.74863 1.49975H9.74763C10.9879 1.49975 11.9973 2.50908 11.9973 3.74938V8.9985C11.9973 10.2388 10.9879 11.2481 9.74763 11.2481H5.24838C5.00317 11.2481 4.84269 11.3674 4.8247 11.3794L1.67222 13.482ZM16.4973 16.3885C16.4973 16.4043 16.4973 16.4553 16.438 16.4868C16.3788 16.5175 16.3383 16.4905 16.3248 16.4815L13.1641 14.3736C13.0411 14.2919 12.8964 14.2476 12.7479 14.2476H8.24863C7.27079 14.2476 6.43768 13.6207 6.12798 12.7479H9.74838C11.8158 12.7479 13.4978 11.0659 13.4978 8.9985V4.49925H14.2476C15.4879 4.49925 16.4973 5.50858 16.4973 6.74888V16.3885Z" fill="#073B89"/>
</svg>
