<svg width="51" height="50" viewBox="0 0 51 50" fill="none" xmlns="http://www.w3.org/2000/svg">
<path d="M25.9766 43.75C36.3319 43.75 44.7266 35.3553 44.7266 25C44.7266 14.6447 36.3319 6.25 25.9766 6.25C15.6212 6.25 7.22656 14.6447 7.22656 25C7.22656 35.3553 15.6212 43.75 25.9766 43.75Z" stroke="#061C3D" stroke-width="2" stroke-linecap="round" stroke-linejoin="round"/>
<path d="M10.6641 35.819L12.9449 34.4421C13.174 34.3038 13.3637 34.109 13.4959 33.8763C13.6281 33.6436 13.6984 33.3808 13.6999 33.1132L13.7395 26.0567C13.7411 25.7619 13.8262 25.4736 13.9847 25.2251L17.8602 19.1513C17.9748 18.9718 18.1248 18.8176 18.3011 18.6981C18.4775 18.5787 18.6763 18.4966 18.8855 18.4568C19.0947 18.417 19.3099 18.4204 19.5177 18.4668C19.7255 18.5131 19.9217 18.6015 20.0942 18.7265L23.9332 21.5078C24.2584 21.7434 24.6617 21.8448 25.0596 21.7909L31.2081 20.9582C31.5853 20.9071 31.9308 20.7202 32.1799 20.4324L36.5075 15.4322C36.7702 15.1287 36.906 14.7356 36.8867 14.3347L36.6585 9.58789" stroke="#061C3D" stroke-width="2" stroke-linecap="round" stroke-linejoin="round"/>
<path d="M37.5139 39.7816L35.4179 37.6814C35.2218 37.485 34.977 37.3443 34.7086 37.2738L30.5175 36.174C30.1455 36.0763 29.8226 35.845 29.6105 35.5241C29.3985 35.2033 29.3122 34.8155 29.3682 34.435L29.834 31.2717C29.8733 31.0047 29.9811 30.7524 30.147 30.5395C30.3128 30.3265 30.5309 30.1601 30.7801 30.0565L36.7275 27.5845C37.0022 27.4703 37.3038 27.4369 37.5969 27.4883C37.8899 27.5396 38.1622 27.6736 38.3817 27.8743L43.2439 32.3212" stroke="#061C3D" stroke-width="2" stroke-linecap="round" stroke-linejoin="round"/>
</svg>
