<svg width="101" height="101" viewBox="0 0 101 101" fill="none" xmlns="http://www.w3.org/2000/svg">
<path d="M92.1673 21.5977C92.1673 14.706 86.559 9.09766 79.6673 9.09766H21.334C14.4423 9.09766 8.83398 14.706 8.83398 21.5977V33.3935C8.83398 37.781 10.4257 41.7685 13.0007 44.8352V79.931C13.0007 84.5268 16.7382 88.2643 21.334 88.2643H79.6673C84.2632 88.2643 88.0007 84.5268 88.0007 79.931V44.831C90.5757 41.7685 92.1673 37.781 92.1673 33.3893V21.5977ZM83.834 21.5977V33.3935C83.834 38.1435 80.2965 42.1935 75.9548 42.4227L75.5007 42.431C70.9048 42.431 67.1673 38.6935 67.1673 34.0977V17.431H79.6673C81.9673 17.431 83.834 19.3018 83.834 21.5977ZM42.1673 17.431H58.834V34.0977C58.834 38.6935 55.0965 42.431 50.5007 42.431C45.9048 42.431 42.1673 38.6935 42.1673 34.0977V17.431ZM17.1673 21.5977C17.1673 19.3018 19.034 17.431 21.334 17.431H33.834V34.0977C33.834 38.6935 30.0965 42.431 25.5007 42.431L25.0465 42.4185C20.7048 42.1935 17.1673 38.1435 17.1673 33.3935V21.5977ZM42.1673 79.931V67.431H58.834V79.931H42.1673ZM67.1673 79.931V67.431C67.1673 62.8352 63.4298 59.0977 58.834 59.0977H42.1673C37.5715 59.0977 33.834 62.8352 33.834 67.431V79.931H21.334V50.2185C22.3923 50.4977 23.4882 50.681 24.6132 50.7393C27.1252 50.8757 29.6354 50.4398 31.9544 49.4647C34.2735 48.4896 36.3409 47.0007 38.0007 45.1102C41.0548 48.5768 45.5298 50.7643 50.5007 50.7643C55.4715 50.7643 59.9465 48.5768 63.0007 45.1102C64.6604 47.0007 66.7278 48.4896 69.0469 49.4647C71.3659 50.4398 73.8761 50.8757 76.3882 50.7393C77.5173 50.681 78.609 50.4977 79.6673 50.2185V79.931H67.1673Z" fill="white"/>
</svg>
