<svg width="18" height="18" viewBox="0 0 18 18" fill="none" xmlns="http://www.w3.org/2000/svg">
<path d="M8.21816 11.682C8.10116 12.078 7.68868 12.3068 7.2852 12.1868C6.87046 12.063 6.43848 12 5.99975 12C3.5181 12 1.49994 14.0182 1.49994 16.5V17.25C1.49994 17.664 1.1647 18 0.749969 18C0.335236 18 0 17.664 0 17.25V16.5C0 13.1918 2.69164 10.5 5.99975 10.5C6.58323 10.5 7.1607 10.584 7.71418 10.749C8.11091 10.8675 8.33665 11.2852 8.21816 11.682ZM17.9993 10.827V13.1407C17.9993 16.1647 15.0196 17.5972 14.1549 17.9452C14.0649 17.9813 13.9697 17.9993 13.8752 17.9993C13.7604 17.9993 13.6449 17.973 13.5279 17.9145C12.6857 17.493 9.74959 15.8175 9.74959 13.1407V10.827C9.74959 9.85575 10.3691 8.99775 11.2908 8.691L13.6389 7.9125C13.7912 7.86225 13.9584 7.86225 14.1107 7.9125L16.4581 8.691C17.3798 8.997 17.9993 9.85575 17.9993 10.827ZM16.4993 10.827C16.4993 10.503 16.2931 10.2173 15.9848 10.1153L13.8744 9.4155L11.7633 10.1153C11.4565 10.2173 11.2495 10.5037 11.2495 10.827V13.1407C11.2495 14.8507 13.2219 16.0567 13.9082 16.425C14.6814 16.0845 16.4993 15.078 16.4993 13.1407V10.827ZM10.4996 4.5C10.4996 6.98175 8.4814 9 5.99975 9C3.5181 9 1.49994 6.98175 1.49994 4.5C1.49994 2.01825 3.5181 0 5.99975 0C8.4814 0 10.4996 2.01825 10.4996 4.5ZM8.99963 4.5C8.99963 2.8455 7.65418 1.5 5.99975 1.5C4.34532 1.5 2.99988 2.8455 2.99988 4.5C2.99988 6.1545 4.34532 7.5 5.99975 7.5C7.65418 7.5 8.99963 6.1545 8.99963 4.5Z" fill="#073B89"/>
</svg>
