<svg width="17" height="18" viewBox="0 0 17 18" fill="none" xmlns="http://www.w3.org/2000/svg">
<path d="M16.9412 10.125C16.9412 6.60975 14.1326 3.75 10.6803 3.75H8.83887C8.83887 2.772 8.2231 1.93875 7.36573 1.629V0.75C7.36573 0.336 7.03648 0 6.62916 0C6.22183 0 5.89258 0.336 5.89258 0.75V1.629C5.03521 1.93875 4.41944 2.772 4.41944 3.75V9.75C4.41944 10.164 4.74869 10.5 5.15601 10.5H8.1023C8.50963 10.5 8.83887 10.164 8.83887 9.75V5.25H10.6803C13.3202 5.25 15.468 7.437 15.468 10.125C15.468 12.813 13.3202 15 10.6803 15H7.36573V13.5H10.312C10.7193 13.5 11.0486 13.164 11.0486 12.75C11.0486 12.336 10.7193 12 10.312 12H2.94629C2.53897 12 2.20972 12.336 2.20972 12.75C2.20972 13.164 2.53897 13.5 2.94629 13.5H5.89258V15H0.736573C0.329248 15 0 15.336 0 15.75C0 16.164 0.329248 16.5 0.736573 16.5H1.47315V17.25C1.47315 17.664 1.80239 18 2.20972 18C2.61704 18 2.94629 17.664 2.94629 17.25V16.5H10.312V17.25C10.312 17.664 10.6413 18 11.0486 18C11.4559 18 11.7852 17.664 11.7852 17.25V16.4002C14.7123 15.867 16.9412 13.2563 16.9412 10.125ZM7.36573 9H5.89258V3.75C5.89258 3.33675 6.22257 3 6.62916 3C7.03574 3 7.36573 3.33675 7.36573 3.75V9Z" fill="#073B89"/>
</svg>
