<svg width="16" height="18" viewBox="0 0 16 18" fill="none" xmlns="http://www.w3.org/2000/svg">
<path d="M6.05347 12.3608C6.22634 12.9285 5.79455 13.5 5.19293 13.5H3.80008C3.19846 13.5 2.76667 12.9285 2.93954 12.3608L3.51602 10.4677C3.64625 10.0417 4.04453 9.74925 4.49612 9.74925C4.94772 9.74925 5.34676 10.041 5.47622 10.4677L6.05271 12.3608H6.05347ZM15.2308 7.86375V14.25C15.2308 16.3177 13.5226 18 11.4231 18H3.80769C1.70813 18 0 16.3177 0 14.25V3.75C0 1.68225 1.70813 0 3.80769 0H7.24604C8.66935 0 10.0081 0.546 11.0157 1.5375L13.6689 4.152C14.6756 5.14275 15.2308 6.46125 15.2308 7.8645V7.86375ZM9.93884 2.598C9.69667 2.3595 9.42785 2.15775 9.13846 1.99425V5.25C9.13846 5.66325 9.47963 6 9.9 6H13.2058C13.0398 5.71575 12.8342 5.451 12.5928 5.2125L9.9396 2.598H9.93884ZM13.7077 7.86375C13.7077 7.7415 13.7016 7.62 13.6902 7.5H9.9C8.64042 7.5 7.61538 6.4905 7.61538 5.25V1.51725C7.49354 1.506 7.37017 1.5 7.24604 1.5H5.33077V2.25C5.33077 2.664 4.99036 3 4.56923 3C4.1481 3 3.80769 2.664 3.80769 2.25V1.5C2.54811 1.5 1.52308 2.5095 1.52308 3.75V14.25C1.52308 15.4905 2.54811 16.5 3.80769 16.5H11.4231C12.6827 16.5 13.7077 15.4905 13.7077 14.25V7.86375ZM4.56923 6C4.99036 6 5.33077 5.664 5.33077 5.25V4.5C5.33077 4.086 4.99036 3.75 4.56923 3.75C4.1481 3.75 3.80769 4.086 3.80769 4.5V5.25C3.80769 5.664 4.1481 6 4.56923 6ZM4.56923 9C4.99036 9 5.33077 8.664 5.33077 8.25V7.5C5.33077 7.086 4.99036 6.75 4.56923 6.75C4.1481 6.75 3.80769 7.086 3.80769 7.5V8.25C3.80769 8.664 4.1481 9 4.56923 9Z" fill="#073B89"/>
</svg>
