<svg width="15" height="18" viewBox="0 0 15 18" fill="none" xmlns="http://www.w3.org/2000/svg">
<path d="M11.1176 0H3.70588C1.66246 0 0 1.68225 0 3.75V15C0 16.6545 1.32967 18 2.96471 18H11.1176C13.1611 18 14.8235 16.3177 14.8235 14.25V3.75C14.8235 1.68225 13.1611 0 11.1176 0ZM13.3412 3.75V12H4.44706V1.5H7.41177V7.76025C7.41177 8.2275 7.99804 8.42775 8.2782 8.0565L9.26471 6.74925L10.2512 8.0565C10.5314 8.42775 11.1176 8.2275 11.1176 7.76025V1.5C12.3436 1.5 13.3412 2.5095 13.3412 3.75ZM2.96471 1.638V12C2.42216 12 1.92039 12.159 1.48235 12.417V3.75C1.48235 2.7735 2.1042 1.9485 2.96471 1.638ZM11.1176 16.5H2.96471C1.01615 16.4648 1.01764 13.5345 2.96471 13.5H13.3412V14.25C13.3412 15.4905 12.3436 16.5 11.1176 16.5Z" fill="#073B89"/>
</svg>
