<svg width="14" height="18" viewBox="0 0 14 18" fill="none" xmlns="http://www.w3.org/2000/svg">
<path d="M9.94118 0H3.82353C1.71524 0 0 1.68225 0 3.75V14.25C0 16.3177 1.71524 18 3.82353 18H5.35294C5.77506 18 6.11765 17.664 6.11765 17.25V13.5H7.64706V17.25C7.64706 17.664 7.98965 18 8.41176 18H9.94118C12.0495 18 13.7647 16.3177 13.7647 14.25V3.75C13.7647 1.68225 12.0495 0 9.94118 0ZM12.2353 14.25C12.2353 15.4905 11.206 16.5 9.94118 16.5H9.17647V13.5H9.94118C10.3633 13.5 10.7059 13.164 10.7059 12.75C10.7059 12.336 10.3633 12 9.94118 12H3.82353C3.40141 12 3.05882 12.336 3.05882 12.75C3.05882 13.164 3.40141 13.5 3.82353 13.5H4.58824V16.5H3.82353C2.55871 16.5 1.52941 15.4905 1.52941 14.25V3.75C1.52941 2.5095 2.55871 1.5 3.82353 1.5H9.94118C11.206 1.5 12.2353 2.5095 12.2353 3.75V14.25ZM6.11765 9.75C6.11765 10.164 5.77506 10.5 5.35294 10.5H5.50588C5.08376 10.5 4.74118 10.164 4.74118 9.75C4.74118 9.336 5.08376 9 5.50588 9H5.35294C5.77506 9 6.11765 9.336 6.11765 9.75ZM9.02353 9.75C9.02353 10.164 8.68094 10.5 8.25882 10.5H8.41176C7.98965 10.5 7.64706 10.164 7.64706 9.75C7.64706 9.336 7.98965 9 8.41176 9H8.25882C8.68094 9 9.02353 9.336 9.02353 9.75ZM6.11765 3.75C6.11765 4.164 5.77506 4.5 5.35294 4.5H5.50588C5.08376 4.5 4.74118 4.164 4.74118 3.75C4.74118 3.336 5.08376 3 5.50588 3H5.35294C5.77506 3 6.11765 3.336 6.11765 3.75ZM9.02353 3.75C9.02353 4.164 8.68094 4.5 8.25882 4.5H8.41176C7.98965 4.5 7.64706 4.164 7.64706 3.75C7.64706 3.336 7.98965 3 8.41176 3H8.25882C8.68094 3 9.02353 3.336 9.02353 3.75ZM6.11765 6.75C6.11765 7.164 5.77506 7.5 5.35294 7.5H5.50588C5.08376 7.5 4.74118 7.164 4.74118 6.75C4.74118 6.336 5.08376 6 5.50588 6H5.35294C5.77506 6 6.11765 6.336 6.11765 6.75ZM9.02353 6.75C9.02353 7.164 8.68094 7.5 8.25882 7.5H8.41176C7.98965 7.5 7.64706 7.164 7.64706 6.75C7.64706 6.336 7.98965 6 8.41176 6H8.25882C8.68094 6 9.02353 6.336 9.02353 6.75Z" fill="#073B89"/>
</svg>
