<svg width="57" height="56" viewBox="0 0 57 56" fill="none" xmlns="http://www.w3.org/2000/svg">
<rect x="0.015625" y="-0.00976562" width="56" height="56" rx="8" fill="#F0F5FF"/>
<path d="M18.2656 21.6152H30.2656C31.0613 21.6152 31.8243 21.9313 32.3869 22.4939C32.9496 23.0565 33.2656 23.8196 33.2656 24.6152V33.6152C33.2656 33.8141 33.1866 34.0049 33.046 34.1456C32.9053 34.2862 32.7145 34.3652 32.5156 34.3652H20.5156C19.72 34.3652 18.9569 34.0492 18.3943 33.4866C17.8317 32.9239 17.5156 32.1609 17.5156 31.3652V22.3652C17.5156 22.1663 17.5946 21.9756 17.7353 21.8349C17.8759 21.6943 18.0667 21.6152 18.2656 21.6152V21.6152Z" stroke="#073B89" stroke-width="2" stroke-linecap="round" stroke-linejoin="round"/>
<path d="M33.2656 26.4902L38.5156 23.4902V32.4902L33.2656 29.4902" stroke="#073B89" stroke-width="2" stroke-linecap="round" stroke-linejoin="round"/>
</svg>
