<svg xmlns="http://www.w3.org/2000/svg" viewBox="0 0 50 50"><defs><style>.cls-1{fill:#000000;}.cls-2{fill:#fff;}</style></defs><title>Asset 2</title><g id="Layer_2" data-name="Layer 2"><g id="Layer_1-2" data-name="Layer 1"><rect class="cls-1" width="50" height="50" rx="2.03"/><path class="cls-2" d="M29.39,35.79H20.61a6.13,6.13,0,0,1-6.11-6.11V20.32a6.13,6.13,0,0,1,6.11-6.11h8.78a6.13,6.13,0,0,1,6.11,6.11v9.36A6.13,6.13,0,0,1,29.39,35.79Zm0-1.62a4.52,4.52,0,0,0,4.5-4.49V20.32a4.52,4.52,0,0,0-4.5-4.49H20.61a4.52,4.52,0,0,0-4.5,4.49v9.36a4.52,4.52,0,0,0,4.5,4.49Z"/><path class="cls-2" d="M30.82,24.92A5.79,5.79,0,1,1,25,19.13,5.78,5.78,0,0,1,30.82,24.92ZM25,21.13a3.79,3.79,0,1,0,3.79,3.79A3.79,3.79,0,0,0,25,21.13Z"/><circle class="cls-2" cx="30.91" cy="19.04" r="1.37"/></g></g></svg>
