<svg xmlns="http://www.w3.org/2000/svg" viewBox="0 0 50 50"><defs><style>.cls-1{fill:#000000;}.cls-2{fill:#fff;}</style></defs><title>Asset 5</title><g id="Layer_2" data-name="Layer 2"><g id="Layer_1-2" data-name="Layer 1"><rect class="cls-1" width="50" height="50" rx="2.03"/><path class="cls-2" d="M29.81,20.54a4.05,4.05,0,0,0-3.67,2v.05h0l0-.05V20.83H22.07c.05,1.15,0,12.25,0,12.25h4.07V26.24a2.67,2.67,0,0,1,.13-1,2.24,2.24,0,0,1,2.09-1.5c1.47,0,2.07,1.13,2.07,2.77v6.56H34.5v-7C34.5,22.29,32.49,20.54,29.81,20.54Z"/><rect class="cls-2" x="15.74" y="20.83" width="4.07" height="12.25"/><path class="cls-2" d="M17.8,14.92a2.12,2.12,0,1,0-.05,4.23h0a2.12,2.12,0,1,0,0-4.23Z"/></g></g></svg>
