<?xml version="1.0" encoding="UTF-8"?>
<svg id="Layer_2" data-name="Layer 2" xmlns="http://www.w3.org/2000/svg" xmlns:xlink="http://www.w3.org/1999/xlink" viewBox="0 0 409.94 409.93">
  <defs>
    <style>
      .cls-1 {
        fill: url(#linear-gradient);
      }

      .cls-1, .cls-2 {
        stroke-width: 0px;
      }

      .cls-2 {
        fill: #fff;
      }
    </style>
    <linearGradient id="linear-gradient" x1="73.13" y1="73.12" x2="360.24" y2="360.24" gradientUnits="userSpaceOnUse">
      <stop offset="0" stop-color="#202226"/>
      <stop offset=".99" stop-color="#000"/>
    </linearGradient>
  </defs>
  <g id="objects">
    <g>
      <path class="cls-1" d="M409.94,47.65v314.63c0,26.31-21.34,47.65-47.66,47.65H47.65c-26.31,0-47.65-21.34-47.65-47.65V47.65C0,21.34,21.34,0,47.65,0h314.63c26.32,0,47.66,21.34,47.66,47.65Z"/>
      <path class="cls-2" d="M233.64,186.71l80.37-85.96h-30.52l-63.08,67.48-48.31-67.48h-83.48l84.5,118.04-84.5,90.39h30.52l67.22-71.9,51.47,71.9h83.48l-87.67-122.46ZM131.63,122.86h29.1l117.56,164.21h-29.1l-117.56-164.21Z"/>
    </g>
  </g>
</svg>