<svg xmlns="http://www.w3.org/2000/svg" viewBox="0 0 50 50"><defs><style>.cls-1{fill:#000000;}.cls-2{fill:#fff;}.cls-3{fill:none;stroke:#353535;stroke-miterlimit:10;}</style></defs><title>Asset 6</title><g id="Layer_2" data-name="Layer 2"><g id="Layer_1-2" data-name="Layer 1"><rect class="cls-1" width="50" height="50" rx="2.03"/><path class="cls-2" d="M38.09,18.91c-.52-2.06-1.48-2.85-3.26-3.14-1-.15-5.94-.34-9.84-.34h0c-3.9,0-8.82.19-9.84.34-1.78.29-2.74,1.08-3.26,3.14a52.62,52.62,0,0,0-.41,5.93v.32a52.62,52.62,0,0,0,.41,5.93c.52,2.06,1.48,2.85,3.26,3.14,1,.15,5.94.34,9.84.34h0c3.9,0,8.82-.19,9.84-.34,1.78-.29,2.74-1.08,3.26-3.14a52.62,52.62,0,0,0,.41-5.93v-.32A52.62,52.62,0,0,0,38.09,18.91ZM22.2,28.79V21.12l7.17,3.75Z"/><path class="cls-3" d="M38.09,18.91c-.52-2.06-1.48-2.85-3.26-3.14-1-.15-5.94-.34-9.84-.34h0c-3.9,0-8.82.19-9.84.34-1.78.29-2.74,1.08-3.26,3.14a52.62,52.62,0,0,0-.41,5.93v.32a52.62,52.62,0,0,0,.41,5.93c.52,2.06,1.48,2.85,3.26,3.14,1,.15,5.94.34,9.84.34h0c3.9,0,8.82-.19,9.84-.34,1.78-.29,2.74-1.08,3.26-3.14a52.62,52.62,0,0,0,.41-5.93v-.32A52.62,52.62,0,0,0,38.09,18.91ZM22.2,28.79V21.12l7.17,3.75Z"/></g></g></svg>
