<svg width="21" height="18" viewBox="0 0 21 18" fill="none" xmlns="http://www.w3.org/2000/svg">
<path d="M18.4889 3.47556L12.3079 0.604351C10.9474 -0.188083 9.2539 -0.202144 7.87964 0.567572L1.62911 3.47556C1.60565 3.48702 1.58133 3.49928 1.5587 3.51234C0.0753769 4.33933 -0.439575 6.18223 0.408567 7.62856C0.696061 8.11887 1.11895 8.52061 1.62911 8.7881L3.35333 9.58908V13.5939C3.35435 15.3847 4.5494 16.9668 6.303 17.499C7.52335 17.8432 8.78873 18.0118 10.0591 17.9992C11.3292 18.0131 12.5946 17.846 13.8151 17.5031C15.5687 16.9709 16.7638 15.3888 16.7648 13.598V9.58743L18.4412 8.80607V15.5472C18.4412 15.9986 18.8165 16.3645 19.2794 16.3645C19.7423 16.3645 20.1176 15.9986 20.1176 15.5472V5.7395C20.1232 4.77976 19.346 3.89316 18.4889 3.47556ZM15.0883 13.598C15.0887 14.6691 14.376 15.6166 13.328 15.9379C12.2654 16.234 11.1642 16.3777 10.059 16.3646C8.95387 16.3777 7.85265 16.234 6.78998 15.9379C5.74204 15.6166 5.0293 14.6691 5.02973 13.598V10.368L7.8101 11.6593C8.49613 12.0566 9.27963 12.2653 10.0775 12.2633C10.8369 12.2686 11.5836 12.0725 12.2376 11.6961L15.0883 10.3679V13.598ZM17.7706 7.31284L11.4488 10.2552C10.5673 10.7556 9.47475 10.7414 8.60724 10.2184L2.42205 7.34962C1.7326 6.98711 1.47509 6.14828 1.84686 5.47607C1.9726 5.24873 2.16111 5.06028 2.39105 4.93201L8.67345 2.00605C9.55518 1.5067 10.6472 1.52084 11.515 2.04283L17.696 4.91404C18.1505 5.16016 18.4349 5.62491 18.4411 6.13185C18.442 6.61205 18.1884 7.0586 17.7706 7.31284Z" fill="#073B89"/>
</svg>
