<svg width="18" height="18" viewBox="0 0 18 18" fill="none" xmlns="http://www.w3.org/2000/svg">
<path d="M18 7.5V14.25C17.9988 15.2442 17.6033 16.1973 16.9003 16.9003C16.1973 17.6033 15.2442 17.9988 14.25 18H3.75C2.7558 17.9988 1.80267 17.6033 1.09966 16.9003C0.396661 16.1973 0.00119089 15.2442 0 14.25V3.75C0.00119089 2.7558 0.396661 1.80267 1.09966 1.09966C1.80267 0.396661 2.7558 0.00119089 3.75 0H8.25C9.2442 0.00119089 10.1973 0.396661 10.9003 1.09966C11.6033 1.80267 11.9988 2.7558 12 3.75H14.25C15.2442 3.75119 16.1973 4.14666 16.9003 4.84966C17.6033 5.55267 17.9988 6.5058 18 7.5ZM3.75 16.5H10.5V3.75C10.5 3.15326 10.2629 2.58097 9.84099 2.15901C9.41903 1.73705 8.84674 1.5 8.25 1.5H3.75C3.15326 1.5 2.58097 1.73705 2.15901 2.15901C1.73705 2.58097 1.5 3.15326 1.5 3.75V14.25C1.5 14.8467 1.73705 15.419 2.15901 15.841C2.58097 16.2629 3.15326 16.5 3.75 16.5ZM16.5 7.5C16.5 6.90326 16.2629 6.33097 15.841 5.90901C15.419 5.48705 14.8467 5.25 14.25 5.25H12V16.5H14.25C14.8467 16.5 15.419 16.2629 15.841 15.841C16.2629 15.419 16.5 14.8467 16.5 14.25V7.5ZM14.25 9.75C14.1017 9.75 13.9567 9.79399 13.8333 9.8764C13.71 9.95881 13.6139 10.0759 13.5571 10.213C13.5003 10.35 13.4855 10.5008 13.5144 10.6463C13.5433 10.7918 13.6148 10.9254 13.7197 11.0303C13.8246 11.1352 13.9582 11.2067 14.1037 11.2356C14.2492 11.2645 14.4 11.2497 14.537 11.1929C14.6741 11.1361 14.7912 11.04 14.8736 10.9167C14.956 10.7933 15 10.6483 15 10.5C15 10.3011 14.921 10.1103 14.7803 9.96967C14.6397 9.82902 14.4489 9.75 14.25 9.75ZM14.25 12.75C14.1017 12.75 13.9567 12.794 13.8333 12.8764C13.71 12.9588 13.6139 13.0759 13.5571 13.213C13.5003 13.35 13.4855 13.5008 13.5144 13.6463C13.5433 13.7918 13.6148 13.9254 13.7197 14.0303C13.8246 14.1352 13.9582 14.2067 14.1037 14.2356C14.2492 14.2645 14.4 14.2497 14.537 14.1929C14.6741 14.1361 14.7912 14.04 14.8736 13.9167C14.956 13.7933 15 13.6483 15 13.5C15 13.3011 14.921 13.1103 14.7803 12.9697C14.6397 12.829 14.4489 12.75 14.25 12.75ZM14.25 6.75C14.1017 6.75 13.9567 6.79399 13.8333 6.8764C13.71 6.95881 13.6139 7.07594 13.5571 7.21299C13.5003 7.35003 13.4855 7.50083 13.5144 7.64632C13.5433 7.7918 13.6148 7.92544 13.7197 8.03033C13.8246 8.13522 13.9582 8.20665 14.1037 8.23559C14.2492 8.26453 14.4 8.24967 14.537 8.19291C14.6741 8.13614 14.7912 8.04001 14.8736 7.91668C14.956 7.79334 15 7.64834 15 7.5C15 7.30109 14.921 7.11032 14.7803 6.96967C14.6397 6.82902 14.4489 6.75 14.25 6.75Z" fill="#073B89"/>
<path d="M4.07422 8.125C3.92588 8.125 3.78088 8.16899 3.65754 8.2514C3.5342 8.33381 3.43808 8.45094 3.38131 8.58799C3.32454 8.72503 3.30969 8.87583 3.33863 9.02132C3.36757 9.1668 3.439 9.30044 3.54389 9.40533C3.64878 9.51022 3.78241 9.58165 3.9279 9.61059C4.07339 9.63953 4.22419 9.62467 4.36123 9.56791C4.49828 9.51114 4.61541 9.41501 4.69782 9.29168C4.78023 9.16834 4.82422 9.02334 4.82422 8.875C4.82422 8.67609 4.7452 8.48532 4.60455 8.34467C4.4639 8.20402 4.27313 8.125 4.07422 8.125ZM4.07422 11.125C3.92588 11.125 3.78088 11.169 3.65754 11.2514C3.5342 11.3338 3.43808 11.4509 3.38131 11.588C3.32454 11.725 3.30969 11.8758 3.33863 12.0213C3.36757 12.1668 3.439 12.3004 3.54389 12.4053C3.64878 12.5102 3.78241 12.5817 3.9279 12.6106C4.07339 12.6395 4.22419 12.6247 4.36123 12.5679C4.49828 12.5111 4.61541 12.415 4.69782 12.2917C4.78023 12.1683 4.82422 12.0233 4.82422 11.875C4.82422 11.6761 4.7452 11.4853 4.60455 11.3447C4.4639 11.204 4.27313 11.125 4.07422 11.125ZM4.07422 5.125C3.92588 5.125 3.78088 5.16899 3.65754 5.2514C3.5342 5.33381 3.43808 5.45094 3.38131 5.58799C3.32454 5.72503 3.30969 5.87583 3.33863 6.02132C3.36757 6.1668 3.439 6.30044 3.54389 6.40533C3.64878 6.51022 3.78241 6.58165 3.9279 6.61059C4.07339 6.63953 4.22419 6.62467 4.36123 6.56791C4.49828 6.51114 4.61541 6.41501 4.69782 6.29168C4.78023 6.16834 4.82422 6.02334 4.82422 5.875C4.82422 5.67609 4.7452 5.48532 4.60455 5.34467C4.4639 5.20402 4.27313 5.125 4.07422 5.125Z" fill="#073B89"/>
<path d="M7.94922 8.125C7.80088 8.125 7.65588 8.16899 7.53254 8.2514C7.4092 8.33381 7.31308 8.45094 7.25631 8.58799C7.19954 8.72503 7.18469 8.87583 7.21363 9.02132C7.24257 9.1668 7.314 9.30044 7.41889 9.40533C7.52378 9.51022 7.65741 9.58165 7.8029 9.61059C7.94839 9.63953 8.09919 9.62467 8.23623 9.56791C8.37328 9.51114 8.49041 9.41501 8.57282 9.29168C8.65523 9.16834 8.69922 9.02334 8.69922 8.875C8.69922 8.67609 8.6202 8.48532 8.47955 8.34467C8.3389 8.20402 8.14813 8.125 7.94922 8.125ZM7.94922 11.125C7.80088 11.125 7.65588 11.169 7.53254 11.2514C7.4092 11.3338 7.31308 11.4509 7.25631 11.588C7.19954 11.725 7.18469 11.8758 7.21363 12.0213C7.24257 12.1668 7.314 12.3004 7.41889 12.4053C7.52378 12.5102 7.65741 12.5817 7.8029 12.6106C7.94839 12.6395 8.09919 12.6247 8.23623 12.5679C8.37328 12.5111 8.49041 12.415 8.57282 12.2917C8.65523 12.1683 8.69922 12.0233 8.69922 11.875C8.69922 11.6761 8.6202 11.4853 8.47955 11.3447C8.3389 11.204 8.14813 11.125 7.94922 11.125ZM7.94922 5.125C7.80088 5.125 7.65588 5.16899 7.53254 5.2514C7.4092 5.33381 7.31308 5.45094 7.25631 5.58799C7.19954 5.72503 7.18469 5.87583 7.21363 6.02132C7.24257 6.1668 7.314 6.30044 7.41889 6.40533C7.52378 6.51022 7.65741 6.58165 7.8029 6.61059C7.94839 6.63953 8.09919 6.62467 8.23623 6.56791C8.37328 6.51114 8.49041 6.41501 8.57282 6.29168C8.65523 6.16834 8.69922 6.02334 8.69922 5.875C8.69922 5.67609 8.6202 5.48532 8.47955 5.34467C8.3389 5.20402 8.14813 5.125 7.94922 5.125Z" fill="#073B89"/>
</svg>
