<svg width="100" height="101" viewBox="0 0 100 101" fill="none" xmlns="http://www.w3.org/2000/svg">
<path d="M87.5007 42.431H79.1673V17.431H83.334V9.09766H16.6673V17.431H20.834V42.431H12.5007C11.3956 42.431 10.3358 42.87 9.55437 43.6514C8.77297 44.4328 8.33398 45.4926 8.33398 46.5977V84.0977H91.6673V46.5977C91.6673 45.4926 91.2283 44.4328 90.4469 43.6514C89.6655 42.87 88.6057 42.431 87.5007 42.431ZM58.334 75.7643V59.0977H41.6673V75.7643H29.1673V17.431H70.834V75.7643H58.334Z" fill="white"/>
<path d="M37.5 25.7637H45.8333V34.097H37.5V25.7637ZM54.1667 25.7637H62.5V34.097H54.1667V25.7637ZM37.5 42.4303H45.8333V50.7637H37.5V42.4303ZM54.1667 42.4303H62.5V50.7637H54.1667V42.4303Z" fill="white"/>
</svg>
