<svg width="20" height="18" viewBox="0 0 20 18" fill="none" xmlns="http://www.w3.org/2000/svg">
<path d="M15.0882 0H3.97059C2.91791 0.00129916 1.90871 0.432722 1.16435 1.19963C0.419995 1.96655 0.00126095 3.00633 0 4.09091L0 10.6364C0.00126095 11.7209 0.419995 12.7607 1.16435 13.5276C1.90871 14.2946 2.91791 14.726 3.97059 14.7273H8.73529V16.3636H5.55882C5.34821 16.3636 5.14622 16.4498 4.9973 16.6033C4.84837 16.7567 4.76471 16.9648 4.76471 17.1818C4.76471 17.3988 4.84837 17.6069 4.9973 17.7604C5.14622 17.9138 5.34821 18 5.55882 18H13.5C13.7106 18 13.9126 17.9138 14.0615 17.7604C14.2105 17.6069 14.2941 17.3988 14.2941 17.1818C14.2941 16.9648 14.2105 16.7567 14.0615 16.6033C13.9126 16.4498 13.7106 16.3636 13.5 16.3636H10.3235V14.7273H15.0882C16.1409 14.726 17.1501 14.2946 17.8945 13.5276C18.6388 12.7607 19.0576 11.7209 19.0588 10.6364V4.09091C19.0576 3.00633 18.6388 1.96655 17.8945 1.19963C17.1501 0.432722 16.1409 0.00129916 15.0882 0ZM3.97059 1.63636H15.0882C15.7201 1.63636 16.326 1.89497 16.7728 2.35528C17.2196 2.8156 17.4706 3.43992 17.4706 4.09091V9.81818H1.58824V4.09091C1.58824 3.43992 1.83923 2.8156 2.28601 2.35528C2.73279 1.89497 3.33875 1.63636 3.97059 1.63636ZM15.0882 13.0909H3.97059C3.47962 13.0888 3.00126 12.9305 2.60097 12.6376C2.20068 12.3447 1.89801 11.9315 1.73435 11.4545H17.3245C17.1608 11.9315 16.8581 12.3447 16.4578 12.6376C16.0576 12.9305 15.5792 13.0888 15.0882 13.0909Z" fill="#073B89"/>
</svg>
