<svg width="18" height="18" viewBox="0 0 18 18" fill="none" xmlns="http://www.w3.org/2000/svg">
<g clip-path="url(#clip0_419_2931)">
<path d="M9 0.000488281C7.21997 0.000488281 5.47991 0.528329 3.99987 1.51726C2.51983 2.50619 1.36628 3.9118 0.685088 5.55634C0.00389957 7.20087 -0.17433 9.01047 0.172936 10.7563C0.520203 12.5021 1.37737 14.1058 2.63604 15.3644C3.89471 16.6231 5.49836 17.4803 7.24419 17.8276C8.99002 18.1748 10.7996 17.9966 12.4442 17.3154C14.0887 16.6342 15.4943 15.4807 16.4832 14.0006C17.4722 12.5206 18 10.7805 18 9.00049C17.9974 6.61433 17.0484 4.32665 15.3611 2.63938C13.6738 0.952109 11.3862 0.00306909 9 0.000488281ZM9 16.5005C7.51664 16.5005 6.06659 16.0606 4.83323 15.2365C3.59986 14.4124 2.63856 13.2411 2.07091 11.8706C1.50325 10.5002 1.35473 8.99217 1.64411 7.53731C1.9335 6.08245 2.64781 4.74608 3.6967 3.69719C4.7456 2.64829 6.08197 1.93399 7.53683 1.6446C8.99168 1.35521 10.4997 1.50373 11.8701 2.07139C13.2406 2.63905 14.4119 3.60034 15.236 4.83371C16.0601 6.06708 16.5 7.51713 16.5 9.00049C16.4978 10.9889 15.7069 12.8953 14.3009 14.3014C12.8948 15.7074 10.9885 16.4983 9 16.5005Z" fill="#073B89"/>
<path d="M9.53775 3.79786C9.10525 3.71905 8.66071 3.73627 8.23559 3.84829C7.81048 3.9603 7.41518 4.16438 7.07767 4.44608C6.74016 4.72779 6.46868 5.08022 6.28246 5.47845C6.09623 5.87669 5.9998 6.31098 6 6.75061C6 6.94952 6.07902 7.14028 6.21967 7.28094C6.36032 7.42159 6.55109 7.50061 6.75 7.50061C6.94891 7.50061 7.13968 7.42159 7.28033 7.28094C7.42098 7.14028 7.5 6.94952 7.5 6.75061C7.49981 6.52994 7.54831 6.31195 7.64204 6.11217C7.73578 5.9124 7.87243 5.73577 8.04226 5.59488C8.2121 5.45398 8.41092 5.3523 8.62457 5.29707C8.83821 5.24183 9.06141 5.23442 9.27825 5.27536C9.57453 5.33287 9.84694 5.4774 10.0607 5.69047C10.2744 5.90355 10.4198 6.17551 10.4782 6.47161C10.5373 6.78241 10.4965 7.10391 10.3618 7.39016C10.2271 7.6764 10.0054 7.91273 9.72825 8.06536C9.26938 8.3312 8.89019 8.71524 8.63019 9.17746C8.3702 9.63967 8.23891 10.1632 8.25 10.6934V11.2506C8.25 11.4495 8.32902 11.6403 8.46967 11.7809C8.61032 11.9216 8.80109 12.0006 9 12.0006C9.19891 12.0006 9.38968 11.9216 9.53033 11.7809C9.67098 11.6403 9.75 11.4495 9.75 11.2506V10.6934C9.74059 10.4324 9.8001 10.1735 9.92255 9.94282C10.045 9.71215 10.2261 9.5178 10.4475 9.37935C10.9909 9.08091 11.4285 8.62145 11.7001 8.06416C11.9717 7.50687 12.0639 6.87912 11.9642 6.26725C11.8645 5.65538 11.5776 5.08943 11.1431 4.64723C10.7086 4.20503 10.1478 3.9083 9.53775 3.79786Z" fill="#073B89"/>
<path d="M9.75 13.501C9.75 13.0868 9.41421 12.751 9 12.751C8.58579 12.751 8.25 13.0868 8.25 13.501C8.25 13.9152 8.58579 14.251 9 14.251C9.41421 14.251 9.75 13.9152 9.75 13.501Z" fill="#073B89"/>
</g>
<defs>
<clipPath id="clip0_419_2931">
<rect width="18" height="18" fill="white"/>
</clipPath>
</defs>
</svg>
