<svg width="47" height="46" viewBox="0 0 47 46" fill="none" xmlns="http://www.w3.org/2000/svg">
<rect x="0.599609" y="0.154297" width="45.4491" height="45.4491" rx="7.55223" fill="#073B89"/>
<g clip-path="url(#clip0_894_2609)">
<path d="M19.1576 11.0273H14.9909C13.8858 11.0273 12.826 11.4488 12.0446 12.1989C11.2632 12.9491 10.8242 13.9665 10.8242 15.0273V16.0273C10.8242 17.0882 11.2632 18.1056 12.0446 18.8558C12.826 19.6059 13.8858 20.0273 14.9909 20.0273H16.0326V22.0273H13.9492C13.673 22.0273 13.408 22.1327 13.2126 22.3202C13.0173 22.5078 12.9076 22.7621 12.9076 23.0273C12.9076 23.2926 13.0173 23.5469 13.2126 23.7345C13.408 23.922 13.673 24.0273 13.9492 24.0273H20.1992C20.4755 24.0273 20.7404 23.922 20.9358 23.7345C21.1311 23.5469 21.2409 23.2926 21.2409 23.0273C21.2409 22.7621 21.1311 22.5078 20.9358 22.3202C20.7404 22.1327 20.4755 22.0273 20.1992 22.0273H18.1159V20.0273H19.1576C20.2626 20.0273 21.3224 19.6059 22.1038 18.8558C22.8852 18.1056 23.3242 17.0882 23.3242 16.0273V15.0273C23.3242 13.9665 22.8852 12.9491 22.1038 12.1989C21.3224 11.4488 20.2626 11.0273 19.1576 11.0273ZM21.2409 16.0273C21.2409 16.5578 21.0214 17.0665 20.6307 17.4416C20.24 17.8166 19.7101 18.0273 19.1576 18.0273H14.9909C14.4384 18.0273 13.9084 17.8166 13.5177 17.4416C13.127 17.0665 12.9076 16.5578 12.9076 16.0273V15.0273C12.9076 14.4969 13.127 13.9882 13.5177 13.6131C13.9084 13.2381 14.4384 13.0273 14.9909 13.0273H19.1576C19.7101 13.0273 20.24 13.2381 20.6307 13.6131C21.0214 13.9882 21.2409 14.4969 21.2409 15.0273V16.0273ZM31.6576 22.0273H29.5742C28.4691 22.0273 27.4093 22.4488 26.6279 23.1989C25.8465 23.9491 25.4076 24.9665 25.4076 26.0273V31.0273C25.4076 32.0882 25.8465 33.1056 26.6279 33.8558C27.4093 34.6059 28.4691 35.0273 29.5742 35.0273H31.6576C32.7626 35.0273 33.8224 34.6059 34.6038 33.8558C35.3852 33.1056 35.8242 32.0882 35.8242 31.0273V26.0273C35.8242 24.9665 35.3852 23.9491 34.6038 23.1989C33.8224 22.4488 32.7626 22.0273 31.6576 22.0273ZM33.7409 31.0273C33.7409 31.5578 33.5214 32.0665 33.1307 32.4416C32.74 32.8166 32.2101 33.0273 31.6576 33.0273H29.5742C29.0217 33.0273 28.4918 32.8166 28.1011 32.4416C27.7104 32.0665 27.4909 31.5578 27.4909 31.0273V26.0273C27.4909 25.4969 27.7104 24.9882 28.1011 24.6131C28.4918 24.2381 29.0217 24.0273 29.5742 24.0273H31.6576C32.2101 24.0273 32.74 24.2381 33.1307 24.6131C33.5214 24.9882 33.7409 25.4969 33.7409 26.0273V31.0273ZM25.4076 15.0273C25.4076 14.7621 25.5173 14.5078 25.7126 14.3202C25.908 14.1327 26.173 14.0273 26.4492 14.0273H28.5326C29.3614 14.0273 30.1562 14.3434 30.7423 14.906C31.3283 15.4686 31.6576 16.2317 31.6576 17.0273V19.0273C31.6576 19.2926 31.5478 19.5469 31.3525 19.7345C31.1571 19.922 30.8922 20.0273 30.6159 20.0273C30.3396 20.0273 30.0747 19.922 29.8793 19.7345C29.684 19.5469 29.5742 19.2926 29.5742 19.0273V17.0273C29.5742 16.7621 29.4645 16.5078 29.2691 16.3202C29.0738 16.1327 28.8088 16.0273 28.5326 16.0273H26.4492C26.173 16.0273 25.908 15.922 25.7126 15.7345C25.5173 15.5469 25.4076 15.2926 25.4076 15.0273ZM23.3242 31.0273C23.3242 31.2926 23.2145 31.5469 23.0191 31.7345C22.8238 31.922 22.5588 32.0273 22.2826 32.0273H19.1576C18.3288 32.0273 17.5339 31.7113 16.9478 31.1487C16.3618 30.5861 16.0326 29.823 16.0326 29.0273V27.0273C16.0326 26.7621 16.1423 26.5078 16.3376 26.3202C16.533 26.1327 16.798 26.0273 17.0742 26.0273C17.3505 26.0273 17.6154 26.1327 17.8108 26.3202C18.0061 26.5078 18.1159 26.7621 18.1159 27.0273V29.0273C18.1159 29.2926 18.2256 29.5469 18.421 29.7345C18.6163 29.922 18.8813 30.0273 19.1576 30.0273H22.2826C22.5588 30.0273 22.8238 30.1327 23.0191 30.3202C23.2145 30.5078 23.3242 30.7621 23.3242 31.0273ZM31.6576 31.0273C31.6576 31.2251 31.5965 31.4185 31.482 31.5829C31.3675 31.7474 31.2049 31.8755 31.0145 31.9512C30.8242 32.0269 30.6147 32.0467 30.4127 32.0081C30.2106 31.9695 30.025 31.8743 29.8793 31.7345C29.7336 31.5946 29.6344 31.4164 29.5942 31.2224C29.554 31.0285 29.5747 30.8274 29.6535 30.6447C29.7324 30.4619 29.8659 30.3058 30.0372 30.1959C30.2085 30.086 30.4099 30.0273 30.6159 30.0273C30.8922 30.0273 31.1571 30.1327 31.3525 30.3202C31.5478 30.5078 31.6576 30.7621 31.6576 31.0273Z" fill="white"/>
</g>
<defs>
<clipPath id="clip0_894_2609">
<rect width="25" height="24" fill="white" transform="translate(10.8242 11.0273)"/>
</clipPath>
</defs>
</svg>
