<svg width="133" height="133" viewBox="0 0 133 133" fill="none" xmlns="http://www.w3.org/2000/svg">
<rect x="0.517578" y="0.832031" width="131.615" height="131.615" rx="21.8703" fill="#F0F5FF"/>
<path d="M47.128 85.6916H51.1292L77.4845 59.3363L73.4833 55.3352L47.128 81.6905V85.6916ZM92.4023 91.3509H41.4688V79.3448L79.485 41.3285C80.0157 40.798 80.7353 40.5 81.4856 40.5C82.2359 40.5 82.9555 40.798 83.4861 41.3285L91.4912 49.3335C92.0217 49.8642 92.3197 50.5838 92.3197 51.3341C92.3197 52.0844 92.0217 52.804 91.4912 53.3347L59.1342 85.6916H92.4023V91.3509ZM77.4845 51.3341L81.4856 55.3352L85.4867 51.3341L81.4856 47.333L77.4845 51.3341Z" fill="#073B89"/>
</svg>
