<svg width="100" height="100" viewBox="0 0 100 100" fill="none" xmlns="http://www.w3.org/2000/svg">
<path fill-rule="evenodd" clip-rule="evenodd" d="M53.4805 16.4758C53.4805 15.5529 53.1139 14.6678 52.4613 14.0153C51.8088 13.3627 50.9237 12.9961 50.0008 12.9961C49.078 12.9961 48.1929 13.3627 47.5403 14.0153C46.8878 14.6678 46.5212 15.5529 46.5212 16.4758V22.2752H41.9558C40.5408 22.2752 39.1535 22.6464 37.924 23.3423L31.9483 26.7617C31.7717 26.8627 31.5717 26.9155 31.3683 26.9148H21.0036C20.0807 26.9148 19.1956 27.2814 18.5431 27.9339C17.8905 28.5865 17.5239 29.4716 17.5239 30.3944C17.5239 31.3173 17.8905 32.2024 18.5431 32.8549C19.1956 33.5075 20.0807 33.8741 21.0036 33.8741H22.9893L13.1905 55.6429C12.9011 56.287 12.8145 57.0038 12.9421 57.6982C13.0697 58.3927 13.4055 59.0318 13.905 59.5309V59.5355L13.9143 59.5448L13.9236 59.5541L13.9514 59.5819L14.0257 59.6515L14.2344 59.8371C15.2102 60.6549 16.2784 61.3556 17.4172 61.9249C20.3387 63.3493 23.553 64.0706 26.803 64.0313C30.8858 64.0313 34.0222 63.0106 36.1888 61.9249C37.3276 61.3556 38.3958 60.6549 39.3716 59.8371L39.5804 59.6515L39.6546 59.5819L39.6824 59.5541L39.6917 59.5448L39.6964 59.5355L37.242 57.0719L39.701 59.5309C40.2005 59.0318 40.5363 58.3927 40.664 57.6982C40.7916 57.0038 40.7049 56.287 40.4155 55.6429L30.6167 33.8741H31.3683C32.7834 33.8741 34.1706 33.503 35.4001 32.807L41.3805 29.3877C41.5557 29.2874 41.754 29.2347 41.9558 29.2346H46.5212V73.3104H34.9222C33.9994 73.3104 33.1143 73.677 32.4617 74.3296C31.8092 74.9821 31.4426 75.8672 31.4426 76.7901C31.4426 77.7129 31.8092 78.598 32.4617 79.2506C33.1143 79.9031 33.9994 80.2697 34.9222 80.2697H65.0794C66.0023 80.2697 66.8873 79.9031 67.5399 79.2506C68.1925 78.598 68.5591 77.7129 68.5591 76.7901C68.5591 75.8672 68.1925 74.9821 67.5399 74.3296C66.8873 73.677 66.0023 73.3104 65.0794 73.3104H53.4805V29.2346H58.0458C58.2476 29.2347 58.4459 29.2874 58.6211 29.3877L64.6062 32.8024C65.831 33.5076 67.2182 33.8741 68.6333 33.8741H69.3849L59.5862 55.6429C59.2967 56.287 59.2101 57.0038 59.3377 57.6982C59.4653 58.3927 59.8012 59.0318 60.3006 59.5309V59.5355L60.3099 59.5448L60.3192 59.5541L60.347 59.5819L60.4213 59.6515L60.6301 59.8371C61.6059 60.6548 62.6741 61.3555 63.8128 61.9249C66.7344 63.3493 69.9486 64.0706 73.1986 64.0313C77.2814 64.0313 80.4178 63.0106 82.5845 61.9249C83.7233 61.3557 84.7915 60.655 85.7672 59.8371L85.976 59.6515L86.0224 59.6051L86.0502 59.5819L86.078 59.5541L86.0873 59.5448L86.092 59.5355L83.6376 57.0719L86.0966 59.5309C86.5961 59.0318 86.9319 58.3927 87.0596 57.6982C87.1872 57.0038 87.1005 56.287 86.8111 55.6429L77.017 33.8741H78.9981C79.9209 33.8741 80.806 33.5075 81.4586 32.8549C82.1111 32.2024 82.4777 31.3173 82.4777 30.3944C82.4777 29.4716 82.1111 28.5865 81.4586 27.9339C80.806 27.2814 79.9209 26.9148 78.9981 26.9148H68.6333C68.4315 26.9147 68.2332 26.8619 68.058 26.7617L62.073 23.347C60.8481 22.6462 59.4616 22.2768 58.0505 22.2752H53.4805V16.4758ZM20.7484 55.8053C22.0707 56.4317 24.0796 57.0719 26.803 57.0719C29.5264 57.0719 31.5354 56.4317 32.8576 55.8053L26.803 42.3506L20.7484 55.8053ZM67.144 55.8053C68.4663 56.4317 70.4752 57.0719 73.1986 57.0719C75.922 57.0719 77.931 56.4317 79.2533 55.8053L73.1986 42.3506L67.144 55.8053Z" fill="#073B89"/>
</svg>
