<svg width="100" height="101" viewBox="0 0 100 101" fill="none" xmlns="http://www.w3.org/2000/svg">
<path fill-rule="evenodd" clip-rule="evenodd" d="M53.4805 17.2394C53.4805 16.3166 53.1139 15.4315 52.4613 14.7789C51.8088 14.1264 50.9237 13.7598 50.0008 13.7598C49.078 13.7598 48.1929 14.1264 47.5403 14.7789C46.8878 15.4315 46.5212 16.3166 46.5212 17.2394V23.0389H41.9558C40.5408 23.0389 39.1535 23.4101 37.924 24.106L31.9483 27.5253C31.7717 27.6263 31.5717 27.6791 31.3683 27.6784H21.0036C20.0807 27.6784 19.1956 28.0451 18.5431 28.6976C17.8905 29.3502 17.5239 30.2353 17.5239 31.1581C17.5239 32.081 17.8905 32.9661 18.5431 33.6186C19.1956 34.2712 20.0807 34.6378 21.0036 34.6378H22.9893L13.1905 56.4066C12.9011 57.0506 12.8145 57.7675 12.9421 58.4619C13.0697 59.1563 13.4055 59.7955 13.905 60.2946V60.2992L13.9143 60.3085L13.9236 60.3178L13.9514 60.3456L14.0257 60.4152L14.2344 60.6008C15.2102 61.4186 16.2784 62.1193 17.4172 62.6886C20.3387 64.113 23.553 64.8343 26.803 64.7949C30.8858 64.7949 34.0222 63.7742 36.1888 62.6886C37.3276 62.1193 38.3958 61.4186 39.3716 60.6008L39.5804 60.4152L39.6546 60.3456L39.6824 60.3178L39.6917 60.3085L39.6964 60.2992L37.242 57.8356L39.701 60.2946C40.2005 59.7955 40.5363 59.1563 40.664 58.4619C40.7916 57.7675 40.7049 57.0506 40.4155 56.4066L30.6167 34.6378H31.3683C32.7834 34.6378 34.1706 34.2666 35.4001 33.5707L41.3805 30.1513C41.5557 30.0511 41.754 29.9983 41.9558 29.9982H46.5212V74.0741H34.9222C33.9994 74.0741 33.1143 74.4407 32.4617 75.0932C31.8092 75.7458 31.4426 76.6309 31.4426 77.5537C31.4426 78.4766 31.8092 79.3617 32.4617 80.0142C33.1143 80.6668 33.9994 81.0334 34.9222 81.0334H65.0794C66.0023 81.0334 66.8873 80.6668 67.5399 80.0142C68.1925 79.3617 68.5591 78.4766 68.5591 77.5537C68.5591 76.6309 68.1925 75.7458 67.5399 75.0932C66.8873 74.4407 66.0023 74.0741 65.0794 74.0741H53.4805V29.9982H58.0458C58.2476 29.9983 58.4459 30.0511 58.6211 30.1513L64.6062 33.5661C65.831 34.2713 67.2182 34.6378 68.6333 34.6378H69.3849L59.5862 56.4066C59.2967 57.0506 59.2101 57.7675 59.3377 58.4619C59.4653 59.1563 59.8012 59.7955 60.3006 60.2946V60.2992L60.3099 60.3085L60.3192 60.3178L60.347 60.3456L60.4213 60.4152L60.6301 60.6008C61.6059 61.4185 62.6741 62.1192 63.8128 62.6886C66.7344 64.113 69.9486 64.8343 73.1986 64.7949C77.2814 64.7949 80.4178 63.7742 82.5845 62.6886C83.7233 62.1194 84.7915 61.4187 85.7672 60.6008L85.976 60.4152L86.0224 60.3688L86.0502 60.3456L86.078 60.3178L86.0873 60.3085L86.092 60.2992L83.6376 57.8356L86.0966 60.2946C86.5961 59.7955 86.9319 59.1563 87.0596 58.4619C87.1872 57.7675 87.1005 57.0506 86.8111 56.4066L77.017 34.6378H78.9981C79.9209 34.6378 80.806 34.2712 81.4586 33.6186C82.1111 32.9661 82.4777 32.081 82.4777 31.1581C82.4777 30.2353 82.1111 29.3502 81.4586 28.6976C80.806 28.0451 79.9209 27.6784 78.9981 27.6784H68.6333C68.4315 27.6783 68.2332 27.6256 68.058 27.5253L62.073 24.1106C60.8481 23.4099 59.4616 23.0405 58.0505 23.0389H53.4805V17.2394ZM20.7484 56.569C22.0707 57.1953 24.0796 57.8356 26.803 57.8356C29.5264 57.8356 31.5354 57.1953 32.8576 56.569L26.803 43.1143L20.7484 56.569ZM67.144 56.569C68.4663 57.1953 70.4752 57.8356 73.1986 57.8356C75.922 57.8356 77.931 57.1953 79.2533 56.569L73.1986 43.1143L67.144 56.569Z" fill="white"/>
</svg>
