<svg width="100" height="100" viewBox="0 0 100 100" fill="none" xmlns="http://www.w3.org/2000/svg">
<path d="M70.709 19.8214C70.4915 18.9457 69.9954 18.1644 69.2953 17.5951C68.5953 17.0258 67.7292 16.6994 66.8275 16.6651C65.9258 16.6308 65.0374 16.8904 64.2961 17.4048C63.5548 17.9192 63.0007 18.6606 62.7173 19.5173L49.4423 59.3256L37.1423 31.6423C36.8074 30.8956 36.2605 30.2639 35.5696 29.8255C34.8786 29.3871 34.0741 29.1615 33.2559 29.1766C32.4378 29.1917 31.6421 29.4468 30.9678 29.9104C30.2935 30.374 29.7703 31.0255 29.4632 31.7839L22.1798 50.0006H8.33398V58.3339H22.1798C25.609 58.3339 28.6465 56.2756 29.9132 53.0964L33.534 44.0464L46.1882 72.5256C46.8632 74.0381 48.359 75.0006 50.0007 75.0006L50.2007 74.9964C51.0401 74.9565 51.8477 74.6633 52.5171 74.1552C53.1866 73.6472 53.6864 72.9483 53.9507 72.1506L66.0923 35.7256L70.1715 52.0214C70.6188 53.826 71.6582 55.4286 73.1236 56.5729C74.5889 57.7172 76.3956 58.3373 78.2548 58.3339H91.6673V50.0006H78.2507L70.709 19.8214Z" fill="#073B89"/>
</svg>
