<svg width="101" height="100" viewBox="0 0 101 100" fill="none" xmlns="http://www.w3.org/2000/svg">
<path d="M92.1673 20.834C92.1673 13.9423 86.559 8.33398 79.6673 8.33398H21.334C14.4423 8.33398 8.83398 13.9423 8.83398 20.834V32.6298C8.83398 37.0173 10.4257 41.0048 13.0007 44.0715V79.1673C13.0007 83.7631 16.7382 87.5006 21.334 87.5006H79.6673C84.2632 87.5006 88.0007 83.7631 88.0007 79.1673V44.0673C90.5757 41.0048 92.1673 37.0173 92.1673 32.6256V20.834ZM83.834 20.834V32.6298C83.834 37.3798 80.2965 41.4298 75.9548 41.659L75.5007 41.6673C70.9048 41.6673 67.1673 37.9298 67.1673 33.334V16.6673H79.6673C81.9673 16.6673 83.834 18.5382 83.834 20.834ZM42.1673 16.6673H58.834V33.334C58.834 37.9298 55.0965 41.6673 50.5007 41.6673C45.9048 41.6673 42.1673 37.9298 42.1673 33.334V16.6673ZM17.1673 20.834C17.1673 18.5382 19.034 16.6673 21.334 16.6673H33.834V33.334C33.834 37.9298 30.0965 41.6673 25.5007 41.6673L25.0465 41.6548C20.7048 41.4298 17.1673 37.3798 17.1673 32.6298V20.834ZM42.1673 79.1673V66.6673H58.834V79.1673H42.1673ZM67.1673 79.1673V66.6673C67.1673 62.0715 63.4298 58.334 58.834 58.334H42.1673C37.5715 58.334 33.834 62.0715 33.834 66.6673V79.1673H21.334V49.4548C22.3923 49.734 23.4882 49.9173 24.6132 49.9757C27.1252 50.112 29.6354 49.6762 31.9544 48.701C34.2735 47.7259 36.3409 46.237 38.0007 44.3465C41.0548 47.8131 45.5298 50.0006 50.5007 50.0006C55.4715 50.0006 59.9465 47.8131 63.0007 44.3465C64.6604 46.237 66.7278 47.7259 69.0469 48.701C71.3659 49.6762 73.8761 50.112 76.3882 49.9757C77.5173 49.9173 78.609 49.734 79.6673 49.4548V79.1673H67.1673Z" fill="#073B89"/>
</svg>
