<svg width="17" height="18" viewBox="0 0 17 18" fill="none" xmlns="http://www.w3.org/2000/svg">
<path d="M5.00535 12H0.770054C0.344984 12 0 11.664 0 11.25C0 10.836 0.344984 10.5 0.770054 10.5H4.59337L5.90477 8.58375C6.05647 8.36175 6.32214 8.229 6.5932 8.2515C6.86734 8.268 7.11144 8.4255 7.23465 8.66475L8.9511 12.009L9.75504 10.8345C9.89827 10.626 10.1385 10.5008 10.3957 10.5008H13.861C14.286 10.5008 14.631 10.8368 14.631 11.2508C14.631 11.6648 14.286 12.0007 13.861 12.0007H10.8077L9.4963 13.917C9.35307 14.1263 9.11204 14.2507 8.85562 14.2507C8.83944 14.2507 8.82327 14.2508 8.80787 14.2493C8.53373 14.2327 8.28963 14.0752 8.16642 13.836L6.44997 10.4918L5.64603 11.6663C5.5028 11.8748 5.26255 12 5.00535 12ZM16.9412 7.86375V14.25C16.9412 16.3177 15.2139 18 13.0909 18H5.39037C3.26734 18 1.54011 16.3177 1.54011 14.25C1.54011 13.836 1.88509 13.5 2.31016 13.5C2.73523 13.5 3.08021 13.836 3.08021 14.25C3.08021 15.4905 4.11671 16.5 5.39037 16.5H13.0909C14.3646 16.5 15.4011 15.4905 15.4011 14.25V7.86375C15.4011 7.7415 15.3949 7.62 15.3834 7.5H11.5508C10.2771 7.5 9.24064 6.4905 9.24064 5.25V1.51725C9.11743 1.506 8.99269 1.5 8.86717 1.5H5.39037C4.11671 1.5 3.08021 2.5095 3.08021 3.75V8.25C3.08021 8.664 2.73523 9 2.31016 9C1.88509 9 1.54011 8.664 1.54011 8.25V3.75C1.54011 1.68225 3.26734 0 5.39037 0H8.86717C10.3072 0 11.6602 0.546 12.6789 1.5375L15.3626 4.15125C16.3806 5.14275 16.9412 6.46125 16.9412 7.86375ZM14.8936 6C14.7257 5.71575 14.5186 5.45025 14.2737 5.2125L11.5901 2.59875C11.3452 2.36025 11.0734 2.1585 10.7815 1.995V5.25075C10.7815 5.664 11.1273 6.00075 11.5516 6.00075H14.8944L14.8936 6Z" fill="#073B89"/>
</svg>
