<svg width="133" height="132" viewBox="0 0 133 132" fill="none" xmlns="http://www.w3.org/2000/svg">
<rect x="0.517578" y="0.292969" width="131.615" height="131.615" rx="21.8703" fill="#F0F5FF"/>
<path d="M39.877 39.653C39.877 37.8994 40.5736 36.2176 41.8136 34.9776C43.0536 33.7376 44.7354 33.041 46.489 33.041H72.937C73.8138 33.0412 74.6545 33.3896 75.2744 34.0097L91.8044 50.5397C92.4244 51.1596 92.7729 52.0003 92.7731 52.8771V92.5491C92.7731 94.3027 92.0764 95.9845 90.8364 97.2245C89.5964 98.4645 87.9147 99.1611 86.161 99.1611H46.489C44.7354 99.1611 43.0536 98.4645 41.8136 97.2245C40.5736 95.9845 39.877 94.3027 39.877 92.5491V39.653ZM84.7924 52.8771L72.937 41.0217V52.8771H84.7924ZM66.325 39.653H46.489V92.5491H86.161V59.4891H69.631C68.7542 59.4891 67.9133 59.1408 67.2933 58.5208C66.6733 57.9008 66.325 57.0599 66.325 56.1831V39.653ZM78.5804 67.0697C79.2001 67.6897 79.5483 68.5304 79.5483 69.4071C79.5483 70.2837 79.2001 71.1245 78.5804 71.7444L65.3563 84.9685C64.7364 85.5882 63.8956 85.9364 63.019 85.9364C62.1424 85.9364 61.3016 85.5882 60.6817 84.9685L54.0696 78.3564C53.7539 78.0515 53.502 77.6867 53.3288 77.2833C53.1555 76.88 53.0643 76.4462 53.0605 76.0072C53.0567 75.5682 53.1403 75.1329 53.3065 74.7266C53.4728 74.3203 53.7183 73.9512 54.0287 73.6408C54.3391 73.3304 54.7082 73.0849 55.1145 72.9186C55.5208 72.7524 55.9561 72.6688 56.3951 72.6726C56.8341 72.6764 57.2679 72.7676 57.6712 72.9409C58.0746 73.1141 58.4394 73.366 58.7443 73.6817L63.019 77.9564L73.9057 67.0697C74.5256 66.45 75.3664 66.1018 76.243 66.1018C77.1197 66.1018 77.9604 66.45 78.5804 67.0697Z" fill="#073B89"/>
</svg>
