<svg width="17" height="18" viewBox="0 0 17 18" fill="none" xmlns="http://www.w3.org/2000/svg">
<path d="M15.0729 3.12165L10.4271 0.502438C9.8408 0.173246 9.17632 0 8.5 0C7.82368 0 7.1592 0.173246 6.57291 0.502438L1.92709 3.12165C1.34193 3.45275 0.855992 3.92798 0.517827 4.49986C0.179662 5.07174 0.00110691 5.72026 0 6.38061V11.619C0.0011272 12.2795 0.179684 12.9281 0.51784 13.5001C0.855996 14.0721 1.34192 14.5475 1.92709 14.8788L6.57291 17.4972C7.15913 17.8266 7.82364 18 8.5 18C9.17636 18 9.84087 17.8266 10.4271 17.4972L15.0729 14.8788C15.6581 14.5475 16.144 14.0721 16.4822 13.5001C16.8203 12.9281 16.9989 12.2795 17 11.619V6.38061C16.9989 5.72026 16.8203 5.07174 16.4822 4.49986C16.144 3.92798 15.6581 3.45275 15.0729 3.12165ZM7.34375 1.80678C7.69529 1.6086 8.09407 1.50427 8.5 1.50427C8.90593 1.50427 9.30471 1.6086 9.65625 1.80678L14.3021 4.42524C14.4199 4.49794 14.5306 4.58108 14.6328 4.67361L9.85898 7.36432C9.4457 7.59695 8.97704 7.7194 8.5 7.7194C8.02296 7.7194 7.5543 7.59695 7.14102 7.36432L2.36724 4.67361C2.46942 4.58108 2.58012 4.49794 2.69792 4.42524L7.34375 1.80678ZM2.69792 13.5744C2.34658 13.3757 2.05486 13.0903 1.85194 12.7469C1.64903 12.4034 1.54203 12.014 1.54167 11.6175V6.38061C1.54702 6.24502 1.56535 6.11021 1.5964 5.97795L6.37018 8.66866C6.79179 8.90282 7.25147 9.06449 7.72917 9.14659V16.3487C7.59601 16.3089 7.46698 16.257 7.34375 16.1936L2.69792 13.5744ZM15.4583 11.6175C15.458 12.014 15.351 12.4034 15.1481 12.7469C14.9451 13.0903 14.6534 13.3757 14.3021 13.5744L9.65625 16.1936C9.53302 16.257 9.40399 16.3089 9.27084 16.3487V9.14659C9.74853 9.06449 10.2082 8.90282 10.6298 8.66866L15.4036 5.97795C15.4347 6.11021 15.453 6.24502 15.4583 6.38061V11.6175Z" fill="#073B89"/>
</svg>
