<svg width="100" height="101" viewBox="0 0 100 101" fill="none" xmlns="http://www.w3.org/2000/svg">
<path d="M70.709 20.5851C70.4915 19.7094 69.9954 18.928 69.2953 18.3588C68.5953 17.7895 67.7292 17.4631 66.8275 17.4288C65.9258 17.3945 65.0374 17.6541 64.2961 18.1685C63.5548 18.6829 63.0007 19.4243 62.7173 20.2809L49.4423 60.0893L37.1423 32.4059C36.8074 31.6593 36.2605 31.0275 35.5696 30.5892C34.8786 30.1508 34.0741 29.9251 33.2559 29.9402C32.4378 29.9553 31.6421 30.2105 30.9678 30.6741C30.2935 31.1376 29.7703 31.7891 29.4632 32.5476L22.1798 50.7643H8.33398V59.0976H22.1798C25.609 59.0976 28.6465 57.0393 29.9132 53.8601L33.534 44.8101L46.1882 73.2893C46.8632 74.8018 48.359 75.7643 50.0007 75.7643L50.2007 75.7601C51.0401 75.7202 51.8477 75.4269 52.5171 74.9189C53.1866 74.4109 53.6864 73.712 53.9507 72.9143L66.0923 36.4893L70.1715 52.7851C70.6188 54.5897 71.6582 56.1922 73.1236 57.3366C74.5889 58.4809 76.3956 59.1009 78.2548 59.0976H91.6673V50.7643H78.2507L70.709 20.5851Z" fill="white"/>
</svg>
