<svg width="133" height="132" viewBox="0 0 133 132" fill="none" xmlns="http://www.w3.org/2000/svg">
<rect x="0.652344" y="0.367188" width="131.615" height="131.615" rx="21.8703" fill="#F0F5FF"/>
<path d="M95.0474 81.1773C95.0474 89.3035 88.4598 95.8911 80.3336 95.8911C72.2073 95.8911 65.6197 89.3035 65.6197 81.1773C65.6197 73.0511 72.2073 66.4635 80.3336 66.4635C88.4598 66.4635 95.0474 73.0511 95.0474 81.1773Z" stroke="#073B89" stroke-width="5.21993"/>
<path d="M73.3184 80.9476L79.8735 86.3303L87.3649 76.0293" stroke="#073B89" stroke-width="4.73511" stroke-linecap="round" stroke-linejoin="round"/>
<line x1="89.7308" y1="48.4902" x2="89.7308" y2="61.309" stroke="#073B89" stroke-width="4.73511"/>
<line x1="37.6293" y1="48.4902" x2="37.6293" y2="61.309" stroke="#073B89" stroke-width="4.73511"/>
<path fill-rule="evenodd" clip-rule="evenodd" d="M50.5686 58.1463C49.8319 57.4095 49.4179 56.4103 49.4179 55.3683C49.4179 54.3264 49.8319 53.3271 50.5686 52.5903C51.3054 51.8535 52.3047 51.4396 53.3466 51.4396C54.3886 51.4396 55.3879 51.8535 56.1247 52.5903C56.8614 53.3271 57.2753 54.3264 57.2753 55.3683C57.2753 56.4103 56.8614 57.4095 56.1247 58.1463C55.3879 58.8831 54.3886 59.297 53.3466 59.297C52.3047 59.297 51.3054 58.8831 50.5686 58.1463ZM41.0367 38.082H85.562C86.7209 38.082 87.6573 39.0184 87.6573 40.1773V66.6893C86.3998 66.3881 85.0873 66.2286 83.7375 66.2286C83.6471 66.2286 83.5568 66.2293 83.4667 66.2307V42.2726H43.132V81.2977H67.0577C67.0017 81.8552 66.973 82.4208 66.973 82.9931C66.973 83.841 67.036 84.6742 67.1574 85.4883H41.0367C39.8777 85.4883 38.9414 84.552 38.9414 83.393V40.1773C38.9414 39.0184 39.8777 38.082 41.0367 38.082ZM73.7759 69.5079C72.7424 70.2726 71.7999 71.1533 70.9676 72.1308H53.3466C53.0585 72.1308 52.8228 71.895 52.8228 71.6069V67.6782C52.8228 67.3901 53.0585 67.1544 53.3466 67.1544H73.2521C73.5402 67.1544 73.7759 67.3901 73.7759 67.6782V69.5079ZM70.474 58.1463C69.7373 57.4095 69.3234 56.4103 69.3234 55.3683C69.3234 54.3264 69.7373 53.3271 70.474 52.5903C71.2108 51.8535 72.2101 51.4396 73.2521 51.4396C74.294 51.4396 75.2933 51.8535 76.0301 52.5903C76.7668 53.3271 77.1807 54.3264 77.1807 55.3683C77.1807 56.4103 76.7668 57.4095 76.0301 58.1463C75.2933 58.8831 74.294 59.297 73.2521 59.297C72.2101 59.297 71.2108 58.8831 70.474 58.1463Z" fill="#073B89"/>
</svg>
