<svg width="18" height="18" viewBox="0 0 18 18" fill="none" xmlns="http://www.w3.org/2000/svg">
<path d="M16.7618 16.2028H2.69575C2.45744 16.2028 2.22888 16.1082 2.06036 15.9396C1.89184 15.7711 1.79717 15.5426 1.79717 15.3042V0.898585C1.79717 0.660265 1.7025 0.431707 1.53398 0.263189C1.36546 0.0946721 1.1369 0 0.898585 0C0.660265 0 0.431707 0.0946721 0.263189 0.263189C0.0946721 0.431707 0 0.660265 0 0.898585L0 15.3042C0 16.0192 0.284016 16.7049 0.789568 17.2104C1.29512 17.716 1.9808 18 2.69575 18H16.7618C17.0001 18 17.2287 17.9053 17.3972 17.7368C17.5657 17.5683 17.6604 17.3397 17.6604 17.1014C17.6604 16.8631 17.5657 16.6345 17.3972 16.466C17.2287 16.2975 17.0001 16.2028 16.7618 16.2028Z" fill="#073B89"/>
<path d="M13.4806 14.4054C13.7189 14.4054 13.9475 14.3107 14.116 14.1422C14.2845 13.9737 14.3792 13.7451 14.3792 13.5068V7.2167C14.3792 6.97838 14.2845 6.74982 14.116 6.5813C13.9475 6.41279 13.7189 6.31812 13.4806 6.31812C13.2423 6.31812 13.0137 6.41279 12.8452 6.5813C12.6767 6.74982 12.582 6.97838 12.582 7.2167V13.5068C12.582 13.7451 12.6767 13.9737 12.8452 14.1422C13.0137 14.3107 13.2423 14.4054 13.4806 14.4054Z" fill="#073B89"/>
<path d="M13.4845 11.9928C13.7228 11.9928 13.9514 11.8981 14.1199 11.7296C14.2884 11.5611 14.3831 11.3325 14.3831 11.0942V4.8041C14.3831 4.56578 14.2884 4.33722 14.1199 4.16871C13.9514 4.00019 13.7228 3.90552 13.4845 3.90552C13.2462 3.90552 13.0176 4.00019 12.8491 4.16871C12.6806 4.33722 12.5859 4.56578 12.5859 4.8041V11.0942C12.5859 11.3325 12.6806 11.5611 12.8491 11.7296C13.0176 11.8981 13.2462 11.9928 13.4845 11.9928Z" fill="#073B89"/>
<path d="M5.60952 14.4054C5.84784 14.4054 6.0764 14.3107 6.24492 14.1422C6.41344 13.9737 6.50811 13.7451 6.50811 13.5068V7.2167C6.50811 6.97838 6.41344 6.74982 6.24492 6.5813C6.0764 6.41279 5.84784 6.31812 5.60952 6.31812C5.3712 6.31812 5.14264 6.41279 4.97413 6.5813C4.80561 6.74982 4.71094 6.97838 4.71094 7.2167V13.5068C4.71094 13.7451 4.80561 13.9737 4.97413 14.1422C5.14264 14.3107 5.3712 14.4054 5.60952 14.4054Z" fill="#073B89"/>
<path d="M9.54702 14.4056C9.78534 14.4056 10.0139 14.311 10.1824 14.1424C10.3509 13.9739 10.4456 13.7454 10.4456 13.507V2.72402C10.4456 2.48571 10.3509 2.25715 10.1824 2.08863C10.0139 1.92011 9.78534 1.82544 9.54702 1.82544C9.3087 1.82544 9.08014 1.92011 8.91163 2.08863C8.74311 2.25715 8.64844 2.48571 8.64844 2.72402V13.507C8.64844 13.7454 8.74311 13.9739 8.91163 14.1424C9.08014 14.311 9.3087 14.4056 9.54702 14.4056Z" fill="#073B89"/>
</svg>
