<svg width="100" height="100" viewBox="0 0 100 100" fill="none" xmlns="http://www.w3.org/2000/svg">
<path d="M90.9256 30.9625C90.5424 30.4087 90.0306 29.9559 89.4341 29.6432C88.8376 29.3304 88.1742 29.1669 87.5006 29.1667H30.5548L25.7465 17.625C25.116 16.1051 24.0484 14.8066 22.6791 13.8942C21.3097 12.9818 19.7003 12.4966 18.0548 12.5H8.33398V20.8334H18.0548L37.8215 68.2709C38.1381 69.0298 38.6722 69.6782 39.3566 70.1341C40.0409 70.5901 40.8449 70.8334 41.6673 70.8334H75.0006C76.7381 70.8334 78.2923 69.7542 78.9048 68.1334L91.4048 34.8C91.6411 34.1693 91.7209 33.4907 91.6374 32.8223C91.554 32.154 91.3097 31.5158 90.9256 30.9625ZM72.1131 62.5H44.4465L34.0298 37.5H81.4881L72.1131 62.5Z" fill="#073B89"/>
<path d="M43.75 87.5C47.2018 87.5 50 84.7018 50 81.25C50 77.7982 47.2018 75 43.75 75C40.2982 75 37.5 77.7982 37.5 81.25C37.5 84.7018 40.2982 87.5 43.75 87.5Z" fill="#073B89"/>
<path d="M72.916 87.5C76.3678 87.5 79.166 84.7018 79.166 81.25C79.166 77.7982 76.3678 75 72.916 75C69.4642 75 66.666 77.7982 66.666 81.25C66.666 84.7018 69.4642 87.5 72.916 87.5Z" fill="#073B89"/>
</svg>
