<svg width="100" height="100" viewBox="0 0 100 100" fill="none" xmlns="http://www.w3.org/2000/svg">
<path d="M87.5007 41.6673H79.1673V16.6673H83.334V8.33398H16.6673V16.6673H20.834V41.6673H12.5007C11.3956 41.6673 10.3358 42.1063 9.55437 42.8877C8.77297 43.6691 8.33398 44.7289 8.33398 45.834V83.334H91.6673V45.834C91.6673 44.7289 91.2283 43.6691 90.4469 42.8877C89.6655 42.1063 88.6057 41.6673 87.5007 41.6673ZM58.334 75.0006V58.334H41.6673V75.0006H29.1673V16.6673H70.834V75.0006H58.334Z" fill="#073B89"/>
<path d="M37.5 25H45.8333V33.3333H37.5V25ZM54.1667 25H62.5V33.3333H54.1667V25ZM37.5 41.6667H45.8333V50H37.5V41.6667ZM54.1667 41.6667H62.5V50H54.1667V41.6667Z" fill="#073B89"/>
</svg>
