<svg width="133" height="133" viewBox="0 0 133 133" fill="none" xmlns="http://www.w3.org/2000/svg">
<rect x="0.517578" y="0.417969" width="131.615" height="131.615" rx="21.8703" fill="#F0F5FF"/>
<path d="M45.9453 79.6535C45.9453 77.7997 47.2488 76.2969 48.8566 76.2969H72.1473C73.7552 76.2969 75.0586 77.7997 75.0586 79.6535C75.0586 81.5074 73.7552 83.0102 72.1473 83.0102H48.8566C47.2488 83.0102 45.9453 81.5074 45.9453 79.6535Z" fill="#073B89"/>
<path d="M83.7918 62.8711C85.3997 62.8711 86.7031 64.3739 86.7031 66.2278C86.7031 68.0816 85.3997 69.5844 83.7918 69.5844H60.5012C58.8933 69.5844 57.5898 68.0816 57.5898 66.2278C57.5898 64.3739 58.8933 62.8711 60.5012 62.8711H83.7918Z" fill="#073B89"/>
<path d="M77.9688 79.6535C77.9688 77.7997 79.2722 76.2969 80.8801 76.2969H83.7914C85.3993 76.2969 86.7027 77.7997 86.7027 79.6535C86.7027 81.5074 85.3993 83.0102 83.7914 83.0102H80.8801C79.2722 83.0102 77.9688 81.5074 77.9688 79.6535Z" fill="#073B89"/>
<path d="M51.768 62.8711C53.3758 62.8711 54.6793 64.3739 54.6793 66.2278C54.6793 68.0816 53.3758 69.5844 51.768 69.5844H48.8566C47.2488 69.5844 45.9453 68.0816 45.9453 66.2278C45.9453 64.3739 47.2488 62.8711 48.8566 62.8711H51.768Z" fill="#073B89"/>
<path fill-rule="evenodd" clip-rule="evenodd" d="M43.0348 36.0156C38.2111 36.0156 34.3008 40.5241 34.3008 46.0856V86.3656C34.3008 91.9273 38.2111 96.4356 43.0348 96.4356H89.616C94.4398 96.4356 98.35 91.9273 98.35 86.3656V46.0856C98.35 40.5241 94.4398 36.0156 89.616 36.0156H43.0348ZM89.616 42.729H43.0348C41.4269 42.729 40.1234 44.2318 40.1234 46.0856V86.3656C40.1234 88.2195 41.4269 89.7223 43.0348 89.7223H89.616C91.224 89.7223 92.5274 88.2195 92.5274 86.3656V46.0856C92.5274 44.2318 91.224 42.729 89.616 42.729Z" fill="#073B89"/>
</svg>
