<svg width="133" height="133" viewBox="0 0 133 133" fill="none" xmlns="http://www.w3.org/2000/svg">
<rect x="0.783203" y="0.830078" width="131.615" height="131.615" rx="21.8703" fill="#073B89"/>
<path d="M87.6015 59.4825C87.6015 59.1858 87.3587 58.943 87.062 58.943H83.0161C82.7194 58.943 82.4766 59.1858 82.4766 59.4825C82.4766 68.9433 74.8095 76.6105 65.3486 76.6105C55.8878 76.6105 48.2206 68.9433 48.2206 59.4825C48.2206 59.1858 47.9779 58.943 47.6811 58.943H43.6352C43.3385 58.943 43.0957 59.1858 43.0957 59.4825C43.0957 70.8584 51.6327 80.2451 62.6513 81.5735V88.4787H52.8533C51.9294 88.4787 51.1877 89.443 51.1877 90.6365V93.0641C51.1877 93.3608 51.3765 93.6036 51.6058 93.6036H79.0915C79.3207 93.6036 79.5095 93.3608 79.5095 93.0641V90.6365C79.5095 89.443 78.7678 88.4787 77.8439 88.4787H67.7762V81.6073C78.9229 80.3935 87.6015 70.9528 87.6015 59.4825ZM65.3486 70.9461C71.6806 70.9461 76.8122 65.8751 76.8122 59.6173V44.5123C76.8122 38.2546 71.6806 33.1836 65.3486 33.1836C59.0166 33.1836 53.885 38.2546 53.885 44.5123V59.6173C53.885 65.8751 59.0166 70.9461 65.3486 70.9461ZM59.0099 44.5123C59.0099 41.1002 61.8353 38.3085 65.3486 38.3085C68.8619 38.3085 71.6873 41.1002 71.6873 44.5123V59.6173C71.6873 63.0295 68.8619 65.8212 65.3486 65.8212C61.8353 65.8212 59.0099 63.0295 59.0099 59.6173V44.5123Z" fill="white"/>
</svg>
