<svg width="100" height="101" viewBox="0 0 100 101" fill="none" xmlns="http://www.w3.org/2000/svg">
<path d="M90.9256 31.7262C90.5424 31.1723 90.0306 30.7196 89.4341 30.4069C88.8376 30.0941 88.1742 29.9306 87.5006 29.9304H30.5548L25.7465 18.3887C25.116 16.8688 24.0484 15.5703 22.6791 14.6579C21.3097 13.7455 19.7003 13.2603 18.0548 13.2637H8.33398V21.597H18.0548L37.8215 69.0345C38.1381 69.7935 38.6722 70.4418 39.3566 70.8978C40.0409 71.3538 40.8449 71.5971 41.6673 71.597H75.0006C76.7381 71.597 78.2923 70.5179 78.9048 68.897L91.4048 35.5637C91.6411 34.9329 91.7209 34.2543 91.6374 33.586C91.554 32.9176 91.3097 32.2795 90.9256 31.7262ZM72.1131 63.2637H44.4465L34.0298 38.2637H81.4881L72.1131 63.2637Z" fill="white"/>
<path d="M43.75 88.2637C47.2018 88.2637 50 85.4655 50 82.0137C50 78.5619 47.2018 75.7637 43.75 75.7637C40.2982 75.7637 37.5 78.5619 37.5 82.0137C37.5 85.4655 40.2982 88.2637 43.75 88.2637Z" fill="white"/>
<path d="M72.916 88.2637C76.3678 88.2637 79.166 85.4655 79.166 82.0137C79.166 78.5619 76.3678 75.7637 72.916 75.7637C69.4642 75.7637 66.666 78.5619 66.666 82.0137C66.666 85.4655 69.4642 88.2637 72.916 88.2637Z" fill="white"/>
</svg>
