<svg width="133" height="133" viewBox="0 0 133 133" fill="none" xmlns="http://www.w3.org/2000/svg">
<rect x="0.517578" y="0.941406" width="131.615" height="131.615" rx="21.8703" fill="#F0F5FF"/>
<path d="M89.453 44.4512C90.9713 44.4512 92.2036 45.6834 92.2036 47.2017V52.0345L86.7024 57.5356V49.9523H48.1945V72.2319L59.1968 61.2296L71.1012 73.1368L67.2092 77.0234L59.1968 69.0137L48.1945 80.0133V88.4603H77.1662L79.1136 88.463L82.7691 84.8048L86.4274 88.4603H86.7024V80.8742L92.2036 75.3731V91.2108C92.2036 92.7291 90.9713 93.9614 89.453 93.9614H45.4439C43.9311 93.9614 42.6934 92.7236 42.6934 91.2108V47.2017C42.6934 45.6834 43.9256 44.4512 45.4439 44.4512H89.453ZM94.3435 57.6759L98.2328 61.5652L76.8389 82.9591L72.9441 82.9536L72.9496 79.0698L94.3435 57.6759ZM77.0755 55.4534C79.3529 55.4534 81.2013 57.3018 81.2013 59.5793C81.2013 61.8568 79.3529 63.7051 77.0755 63.7051C74.798 63.7051 72.9496 61.8568 72.9496 59.5793C72.9496 57.3018 74.798 55.4534 77.0755 55.4534Z" fill="#073B89"/>
</svg>
