<svg width="20" height="18" viewBox="0 0 20 18" fill="none" xmlns="http://www.w3.org/2000/svg">
<path d="M15.1406 0H3.98438C2.92804 0.00129916 1.91534 0.432722 1.16839 1.19963C0.421453 1.96655 0.00126532 3.00633 0 4.09091L0 13.9091C0.00126532 14.9937 0.421453 16.0335 1.16839 16.8004C1.91534 17.5673 2.92804 17.9987 3.98438 18H15.1406C16.197 17.9987 17.2097 17.5673 17.9566 16.8004C18.7035 16.0335 19.1237 14.9937 19.125 13.9091V4.09091C19.1237 3.00633 18.7035 1.96655 17.9566 1.19963C17.2097 0.432722 16.197 0.00129916 15.1406 0ZM3.98438 1.63636H15.1406C15.7747 1.63636 16.3827 1.89497 16.8311 2.35528C17.2794 2.8156 17.5312 3.43992 17.5312 4.09091V4.90909H1.59375V4.09091C1.59375 3.43992 1.84562 2.8156 2.29395 2.35528C2.74228 1.89497 3.35034 1.63636 3.98438 1.63636ZM15.1406 16.3636H3.98438C3.35034 16.3636 2.74228 16.105 2.29395 15.6447C1.84562 15.1844 1.59375 14.5601 1.59375 13.9091V6.54545H17.5312V13.9091C17.5312 14.5601 17.2794 15.1844 16.8311 15.6447C16.3827 16.105 15.7747 16.3636 15.1406 16.3636ZM15.1406 9.81818C15.1406 10.0352 15.0567 10.2433 14.9072 10.3967C14.7578 10.5502 14.5551 10.6364 14.3438 10.6364H4.78125C4.56991 10.6364 4.36722 10.5502 4.21777 10.3967C4.06833 10.2433 3.98438 10.0352 3.98438 9.81818C3.98438 9.60119 4.06833 9.39308 4.21777 9.23964C4.36722 9.0862 4.56991 9 4.78125 9H14.3438C14.5551 9 14.7578 9.0862 14.9072 9.23964C15.0567 9.39308 15.1406 9.60119 15.1406 9.81818ZM11.9531 13.0909C11.9531 13.3079 11.8692 13.516 11.7197 13.6695C11.5703 13.8229 11.3676 13.9091 11.1562 13.9091H4.78125C4.56991 13.9091 4.36722 13.8229 4.21777 13.6695C4.06833 13.516 3.98438 13.3079 3.98438 13.0909C3.98438 12.8739 4.06833 12.6658 4.21777 12.5124C4.36722 12.3589 4.56991 12.2727 4.78125 12.2727H11.1562C11.3676 12.2727 11.5703 12.3589 11.7197 12.5124C11.8692 12.6658 11.9531 12.8739 11.9531 13.0909ZM2.39062 3.27273C2.39062 3.11091 2.43736 2.95272 2.52492 2.81817C2.61248 2.68362 2.73694 2.57875 2.88255 2.51683C3.02816 2.4549 3.18838 2.4387 3.34296 2.47027C3.49754 2.50184 3.63953 2.57976 3.75098 2.69419C3.86242 2.80861 3.93832 2.9544 3.96906 3.11311C3.99981 3.27182 3.98403 3.43633 3.92372 3.58583C3.8634 3.73533 3.76127 3.86312 3.63022 3.95302C3.49917 4.04292 3.34511 4.09091 3.1875 4.09091C2.97616 4.09091 2.77347 4.00471 2.62402 3.85127C2.47458 3.69783 2.39062 3.48972 2.39062 3.27273ZM4.78125 3.27273C4.78125 3.11091 4.82799 2.95272 4.91555 2.81817C5.00311 2.68362 5.12756 2.57875 5.27317 2.51683C5.41878 2.4549 5.57901 2.4387 5.73359 2.47027C5.88817 2.50184 6.03016 2.57976 6.1416 2.69419C6.25305 2.80861 6.32894 2.9544 6.35969 3.11311C6.39044 3.27182 6.37466 3.43633 6.31434 3.58583C6.25403 3.73533 6.15189 3.86312 6.02084 3.95302C5.8898 4.04292 5.73573 4.09091 5.57812 4.09091C5.36678 4.09091 5.16409 4.00471 5.01465 3.85127C4.86521 3.69783 4.78125 3.48972 4.78125 3.27273ZM7.17188 3.27273C7.17188 3.11091 7.21861 2.95272 7.30617 2.81817C7.39373 2.68362 7.51819 2.57875 7.6638 2.51683C7.80941 2.4549 7.96963 2.4387 8.12421 2.47027C8.27879 2.50184 8.42078 2.57976 8.53223 2.69419C8.64367 2.80861 8.71957 2.9544 8.75031 3.11311C8.78106 3.27182 8.76528 3.43633 8.70497 3.58583C8.64465 3.73533 8.54252 3.86312 8.41147 3.95302C8.28043 4.04292 8.12636 4.09091 7.96875 4.09091C7.75741 4.09091 7.55472 4.00471 7.40527 3.85127C7.25583 3.69783 7.17188 3.48972 7.17188 3.27273Z" fill="#073B89"/>
</svg>
