<svg width="18" height="18" viewBox="0 0 18 18" fill="none" xmlns="http://www.w3.org/2000/svg">
<path d="M11.0221 11.5358L10.4146 12.1426C10.1213 12.4358 10.1213 12.9098 10.4146 13.203C10.5608 13.3493 10.7528 13.4228 10.9448 13.4228C11.1368 13.4228 11.3288 13.3493 11.4751 13.203L17.0265 7.65236C17.3198 7.35911 17.3198 6.88512 17.0265 6.59187C16.7333 6.29862 16.2593 6.29862 15.966 6.59187L15.4245 7.13336L10.1131 1.82192L10.6546 1.28042C10.9478 0.987177 10.9478 0.513182 10.6546 0.219935C10.3613 -0.0733117 9.88733 -0.0733117 9.59409 0.219935L4.04264 5.77138C3.7494 6.06462 3.7494 6.53862 4.04264 6.83187C4.18889 6.97812 4.38089 7.05161 4.57289 7.05161C4.76489 7.05161 4.95689 6.97812 5.10313 6.83187L5.71063 6.22437L7.83761 8.35135L0.219935 15.9698C-0.0733117 16.263 -0.0733117 16.737 0.219935 17.0303C0.366184 17.1765 0.558182 17.25 0.75018 17.25C0.942178 17.25 1.13418 17.1765 1.28042 17.0303L8.89884 9.41184L11.0228 11.5351L11.0221 11.5358ZM14.3648 8.19385L12.0826 10.4753L11.1488 9.54159L13.431 7.25936L14.3648 8.1931V8.19385ZM7.77311 6.16662L6.77112 5.16463L9.05334 2.88241L10.0553 3.8844L7.77311 6.16662ZM11.1158 4.94489L12.3698 6.19887L10.0876 8.4811L8.8336 7.22711L11.1158 4.94489ZM18 17.25C18 17.6648 17.6648 18 17.25 18H7.50011C7.08536 18 6.75012 17.6648 6.75012 17.25C6.75012 16.8353 7.08536 16.5 7.50011 16.5H7.53836C7.71236 15.645 8.46985 15 9.37509 15H15.375C16.281 15 17.0378 15.645 17.2118 16.5H17.25C17.6648 16.5 18 16.8353 18 17.25Z" fill="#073B89"/>
</svg>
