<svg width="17" height="20" viewBox="0 0 17 20" fill="none" xmlns="http://www.w3.org/2000/svg">
<path d="M0.749999 17.25C0.749999 17.6647 1.086 18 1.5 18C1.914 18 2.25 17.6647 2.25 17.25C2.25 15.5955 3.5955 14.25 5.25 14.25H9.75C10.0512 14.25 10.3421 14.2946 10.6166 14.3775C11.8498 14.7501 10.5 14.6467 10.5 16C10.5 16.4147 11.086 14 11.5 14C11.914 14 11.5 14.4148 11.5 14C11.5 12.1625 13.1436 13.8291 11.5619 13.1308C11.0073 12.886 10.3943 12.75 9.75 12.75H5.25C2.76825 12.75 0.749999 14.7682 0.749999 17.25ZM-9.53674e-07 5.625V7.125C-9.53674e-07 7.74525 0.504749 8.25 1.125 8.25H1.5C1.5 9.9045 2.8455 11.25 4.5 11.25H10.5C12.1545 11.25 13.5 9.9045 13.5 8.25H13.875C14.4952 8.25 15 7.74525 15 7.125V5.625C15 5.00475 14.4952 4.5 13.875 4.5H13.5C13.5 2.8455 12.1545 1.5 10.5 1.5H8.25V0.75C8.25 0.33525 7.914 0 7.5 0C7.086 0 6.75 0.33525 6.75 0.75V1.5H4.5C2.8455 1.5 1.5 2.8455 1.5 4.5H1.125C0.504749 4.5 -9.53674e-07 5.00475 -9.53674e-07 5.625ZM3 4.5C3 3.67275 3.67275 3 4.5 3H10.5C11.3272 3 12 3.67275 12 4.5V8.25C12 9.07725 11.3272 9.75 10.5 9.75H4.5C3.67275 9.75 3 9.07725 3 8.25V4.5ZM9.375 5.25C9.996 5.25 10.5 5.754 10.5 6.375C10.5 6.996 9.996 7.5 9.375 7.5C8.754 7.5 8.25 6.996 8.25 6.375C8.25 5.754 8.754 5.25 9.375 5.25ZM5.625 5.25C6.246 5.25 6.75 5.754 6.75 6.375C6.75 6.996 6.246 7.5 5.625 7.5C5.004 7.5 4.5 6.996 4.5 6.375C4.5 5.754 5.004 5.25 5.625 5.25Z" fill="#073B89"/>
<circle cx="13" cy="16" r="2.6" stroke="#073B89" stroke-width="1.2"/>
<path d="M11.8594 16.0287L13.0066 16.9707L14 15" stroke="#073B89" stroke-width="0.9" stroke-linecap="round" stroke-linejoin="round"/>
</svg>
