<svg width="51" height="51" viewBox="0 0 51 51" fill="none" xmlns="http://www.w3.org/2000/svg">
<path d="M25.9766 31.75C30.2913 31.75 33.7891 28.2522 33.7891 23.9375C33.7891 19.6228 30.2913 16.125 25.9766 16.125C21.6618 16.125 18.1641 19.6228 18.1641 23.9375C18.1641 28.2522 21.6618 31.75 25.9766 31.75Z" stroke="#061C3D" stroke-width="2" stroke-miterlimit="10"/>
<path d="M13.4375 39.4402C14.6145 37.1262 16.4088 35.183 18.6219 33.8257C20.835 32.4684 23.3806 31.75 25.9767 31.75C28.5729 31.75 31.1184 32.4684 33.3315 33.8257C35.5446 35.1829 37.339 37.1262 38.516 39.4402" stroke="#061C3D" stroke-width="2" stroke-linecap="round" stroke-linejoin="round"/>
<path d="M35.3516 11.4375H44.7266" stroke="#061C3D" stroke-width="2" stroke-linecap="round" stroke-linejoin="round"/>
<path d="M40.0391 6.75V16.125" stroke="#061C3D" stroke-width="2" stroke-linecap="round" stroke-linejoin="round"/>
<path d="M44.4958 22.5426C45.1164 26.4499 44.484 30.4534 42.689 33.9791C40.8941 37.5049 38.0288 40.3717 34.5041 42.1686C30.9794 43.9655 26.9763 44.6003 23.0686 43.9818C19.1609 43.3633 15.5494 41.5234 12.7518 38.7259C9.95428 35.9283 8.11439 32.3168 7.49592 28.4091C6.87746 24.5014 7.5122 20.4983 9.30913 16.9736C11.1061 13.4489 13.9729 10.5836 17.4986 8.7887C21.0243 6.99376 25.0279 6.36129 28.9352 6.98195" stroke="#061C3D" stroke-width="2" stroke-linecap="round" stroke-linejoin="round"/>
</svg>
