<svg width="101" height="100" viewBox="0 0 101 100" fill="none" xmlns="http://www.w3.org/2000/svg">
<path d="M69.6818 46.0326C72.2195 41.7079 73.3154 36.688 72.8109 31.6992C72.0651 24.2659 67.9151 17.6951 61.1318 13.1992L56.5276 20.1409C61.1901 23.2326 64.0276 27.6367 64.5193 32.5326C64.746 34.808 64.4627 37.1053 63.6901 39.2575C62.9174 41.4097 61.6748 43.3626 60.0526 44.9742L55.0859 49.9409L61.8276 51.9201C79.4609 57.0867 79.6651 74.8201 79.6651 74.9992H87.9984C87.9984 67.5451 84.0151 52.9784 69.6818 46.0326Z" fill="#073B89"/>
<path d="M40.082 50.0013C49.2737 50.0013 56.7487 42.5263 56.7487 33.3346C56.7487 24.143 49.2737 16.668 40.082 16.668C30.8904 16.668 23.4154 24.143 23.4154 33.3346C23.4154 42.5263 30.8904 50.0013 40.082 50.0013ZM40.082 25.0013C44.6779 25.0013 48.4154 28.7388 48.4154 33.3346C48.4154 37.9305 44.6779 41.668 40.082 41.668C35.4862 41.668 31.7487 37.9305 31.7487 33.3346C31.7487 28.7388 35.4862 25.0013 40.082 25.0013ZM46.332 54.168H33.832C20.0445 54.168 8.83203 65.3805 8.83203 79.168V83.3346H17.1654V79.168C17.1654 69.9763 24.6404 62.5013 33.832 62.5013H46.332C55.5237 62.5013 62.9987 69.9763 62.9987 79.168V83.3346H71.332V79.168C71.332 65.3805 60.1195 54.168 46.332 54.168Z" fill="#073B89"/>
</svg>
