<svg width="133" height="133" viewBox="0 0 133 133" fill="none" xmlns="http://www.w3.org/2000/svg">
<rect x="0.648438" y="0.417969" width="131.615" height="131.615" rx="21.8703" fill="#073B89"/>
<path d="M46.0762 79.6535C46.0762 77.7997 47.3796 76.2969 48.9875 76.2969H72.2781C73.8861 76.2969 75.1895 77.7997 75.1895 79.6535C75.1895 81.5074 73.8861 83.0102 72.2781 83.0102H48.9875C47.3796 83.0102 46.0762 81.5074 46.0762 79.6535Z" fill="white"/>
<path d="M83.9227 62.8711C85.5306 62.8711 86.834 64.3739 86.834 66.2278C86.834 68.0816 85.5306 69.5844 83.9227 69.5844H60.632C59.0242 69.5844 57.7207 68.0816 57.7207 66.2278C57.7207 64.3739 59.0242 62.8711 60.632 62.8711H83.9227Z" fill="white"/>
<path d="M78.0996 79.6535C78.0996 77.7997 79.403 76.2969 81.0109 76.2969H83.9223C85.5302 76.2969 86.8336 77.7997 86.8336 79.6535C86.8336 81.5074 85.5302 83.0102 83.9223 83.0102H81.0109C79.403 83.0102 78.0996 81.5074 78.0996 79.6535Z" fill="white"/>
<path d="M51.8988 62.8711C53.5067 62.8711 54.8102 64.3739 54.8102 66.2278C54.8102 68.0816 53.5067 69.5844 51.8988 69.5844H48.9875C47.3796 69.5844 46.0762 68.0816 46.0762 66.2278C46.0762 64.3739 47.3796 62.8711 48.9875 62.8711H51.8988Z" fill="white"/>
<path fill-rule="evenodd" clip-rule="evenodd" d="M43.1656 36.0156C38.342 36.0156 34.4316 40.5241 34.4316 46.0856V86.3656C34.4316 91.9273 38.342 96.4356 43.1656 96.4356H89.7469C94.5707 96.4356 98.4809 91.9273 98.4809 86.3656V46.0856C98.4809 40.5241 94.5707 36.0156 89.7469 36.0156H43.1656ZM89.7469 42.729H43.1656C41.5578 42.729 40.2543 44.2318 40.2543 46.0856V86.3656C40.2543 88.2195 41.5578 89.7223 43.1656 89.7223H89.7469C91.3548 89.7223 92.6582 88.2195 92.6582 86.3656V46.0856C92.6582 44.2318 91.3548 42.729 89.7469 42.729Z" fill="white"/>
</svg>
