<svg width="133" height="133" viewBox="0 0 133 133" fill="none" xmlns="http://www.w3.org/2000/svg">
<rect x="0.648438" y="0.832031" width="131.615" height="131.615" rx="21.8703" fill="#073B89"/>
<path d="M47.2589 85.6916H51.26L77.6153 59.3363L73.6142 55.3352L47.2589 81.6905V85.6916ZM92.5332 91.3509H41.5996V79.3448L79.6159 41.3285C80.1465 40.798 80.8661 40.5 81.6164 40.5C82.3668 40.5 83.0864 40.798 83.617 41.3285L91.6221 49.3335C92.1525 49.8642 92.4505 50.5838 92.4505 51.3341C92.4505 52.0844 92.1525 52.804 91.6221 53.3347L59.2651 85.6916H92.5332V91.3509ZM77.6153 51.3341L81.6164 55.3352L85.6176 51.3341L81.6164 47.333L77.6153 51.3341Z" fill="white"/>
</svg>
