<svg width="133" height="132" viewBox="0 0 133 132" fill="none" xmlns="http://www.w3.org/2000/svg">
<rect x="0.783203" y="0.367188" width="131.615" height="131.615" rx="21.8703" fill="#073B89"/>
<path d="M94.2798 81.1773C94.2798 89.3035 87.6922 95.8911 79.566 95.8911C71.4398 95.8911 64.8522 89.3035 64.8522 81.1773C64.8522 73.0511 71.4398 66.4635 79.566 66.4635C87.6922 66.4635 94.2798 73.0511 94.2798 81.1773Z" stroke="white" stroke-width="5.21993"/>
<path d="M72.5508 80.9476L79.106 86.3303L86.5973 76.0293" stroke="white" stroke-width="4.73511" stroke-linecap="round" stroke-linejoin="round"/>
<line x1="88.9633" y1="48.4902" x2="88.9633" y2="61.309" stroke="white" stroke-width="4.73511"/>
<line x1="36.8617" y1="48.4902" x2="36.8617" y2="61.309" stroke="white" stroke-width="4.73511"/>
<path fill-rule="evenodd" clip-rule="evenodd" d="M49.801 58.1463C49.0643 57.4095 48.6504 56.4103 48.6504 55.3683C48.6504 54.3264 49.0643 53.3271 49.801 52.5903C50.5378 51.8535 51.5371 51.4396 52.5791 51.4396C53.621 51.4396 54.6203 51.8535 55.3571 52.5903C56.0938 53.3271 56.5078 54.3264 56.5078 55.3683C56.5078 56.4103 56.0938 57.4095 55.3571 58.1463C54.6203 58.8831 53.621 59.297 52.5791 59.297C51.5371 59.297 50.5378 58.8831 49.801 58.1463ZM40.2691 38.082H84.7944C85.9534 38.082 86.8897 39.0184 86.8897 40.1773V66.6893C85.6323 66.3881 84.3197 66.2286 82.9699 66.2286C82.8795 66.2286 82.7892 66.2293 82.6991 66.2307V42.2726H42.3644V81.2977H66.2901C66.2341 81.8552 66.2054 82.4208 66.2054 82.9931C66.2054 83.841 66.2684 84.6742 66.3899 85.4883H40.2691C39.1102 85.4883 38.1738 84.552 38.1738 83.393V40.1773C38.1738 39.0184 39.1102 38.082 40.2691 38.082ZM73.0083 69.5079C71.9748 70.2726 71.0323 71.1533 70.2001 72.1308H52.5791C52.291 72.1308 52.0552 71.895 52.0552 71.6069V67.6782C52.0552 67.3901 52.291 67.1544 52.5791 67.1544H72.4845C72.7726 67.1544 73.0083 67.3901 73.0083 67.6782V69.5079ZM69.7065 58.1463C68.9697 57.4095 68.5558 56.4103 68.5558 55.3683C68.5558 54.3264 68.9697 53.3271 69.7065 52.5903C70.4432 51.8535 71.4425 51.4396 72.4845 51.4396C73.5264 51.4396 74.5257 51.8535 75.2625 52.5903C75.9993 53.3271 76.4132 54.3264 76.4132 55.3683C76.4132 56.4103 75.9993 57.4095 75.2625 58.1463C74.5257 58.8831 73.5264 59.297 72.4845 59.297C71.4425 59.297 70.4432 58.8831 69.7065 58.1463Z" fill="white"/>
</svg>
