<svg width="46" height="46" viewBox="0 0 46 46" fill="none" xmlns="http://www.w3.org/2000/svg">
<rect x="0.283203" y="0.154297" width="45.4491" height="45.4491" rx="7.55223" fill="#073B89"/>
<g clip-path="url(#clip0_894_2611)">
<path d="M14.0078 10.7295C12.3538 10.7295 11.0078 12.0755 11.0078 13.7295V23.0725C11.0078 24.4085 11.5288 25.6645 12.4728 26.6085L13.3008 27.4365C13.4958 27.6315 13.7518 27.7295 14.0078 27.7295C14.2638 27.7295 14.5198 27.6315 14.7148 27.4365L15.5428 26.6085C16.4868 25.6645 17.0078 24.4085 17.0078 23.0725V13.7295C17.0078 12.0755 15.6618 10.7295 14.0078 10.7295ZM15.0078 23.0725C15.0078 23.8745 14.6948 24.6285 14.1288 25.1945L14.0078 25.3155L13.8868 25.1945C13.3208 24.6285 13.0078 23.8745 13.0078 23.0725V13.7295C13.0078 13.1775 13.4558 12.7295 14.0078 12.7295C14.5598 12.7295 15.0078 13.1775 15.0078 13.7295V23.0725ZM33.5428 13.8505L31.8868 12.1945C30.9428 11.2505 29.6868 10.7295 28.3508 10.7295H23.0078C20.8018 10.7295 19.0078 12.5235 19.0078 14.7295V20.7295C19.0078 21.2825 19.4548 21.7295 20.0078 21.7295C20.5608 21.7295 21.0078 21.2825 21.0078 20.7295V14.7295C21.0078 13.6265 21.9048 12.7295 23.0078 12.7295H28.0078V15.7295C28.0078 16.8325 28.9048 17.7295 30.0078 17.7295H33.0078V29.7295C33.0078 30.2825 33.4548 30.7295 34.0078 30.7295C34.5608 30.7295 35.0078 30.2825 35.0078 29.7295V17.3865C35.0078 16.0505 34.4868 14.7945 33.5428 13.8505ZM30.0078 13.2285C30.1728 13.3385 30.3288 13.4655 30.4728 13.6085L32.1288 15.2645C32.2728 15.4085 32.3988 15.5635 32.5088 15.7295H30.0078V13.2285ZM28.0078 23.7295H21.0078C19.3538 23.7295 18.0078 25.0755 18.0078 26.7295V31.7295C18.0078 33.3835 19.3538 34.7295 21.0078 34.7295H28.0078C29.6618 34.7295 31.0078 33.3835 31.0078 31.7295V26.7295C31.0078 25.0755 29.6618 23.7295 28.0078 23.7295ZM28.0078 25.7295C28.0328 25.7295 28.0548 25.7425 28.0788 25.7435L25.4728 28.3495C24.9398 28.8825 24.0748 28.8825 23.5408 28.3495L20.9348 25.7435C20.9598 25.7415 20.9808 25.7295 21.0058 25.7295H28.0058H28.0078ZM28.0078 32.7295H21.0078C20.4558 32.7295 20.0078 32.2815 20.0078 31.7295V27.6435L22.1278 29.7635C22.7638 30.3995 23.6078 30.7495 24.5078 30.7495C25.4078 30.7495 26.2518 30.3985 26.8878 29.7635L29.0078 27.6435V31.7295C29.0078 32.2815 28.5598 32.7295 28.0078 32.7295Z" fill="white"/>
</g>
<defs>
<clipPath id="clip0_894_2611">
<rect width="24" height="24" fill="white" transform="translate(11.0078 10.7295)"/>
</clipPath>
</defs>
</svg>
