<svg width="47" height="46" viewBox="0 0 47 46" fill="none" xmlns="http://www.w3.org/2000/svg">
<rect x="0.757812" y="0.154297" width="45.4491" height="45.4491" rx="7.55223" fill="#073B89"/>
<g clip-path="url(#clip0_894_2608)">
<path d="M26.9824 17.0273C25.0524 17.0273 23.4824 18.5973 23.4824 20.5273C23.4824 22.4573 25.0524 24.0273 26.9824 24.0273C28.9124 24.0273 30.4824 22.4573 30.4824 20.5273C30.4824 18.5973 28.9124 17.0273 26.9824 17.0273ZM26.9824 22.0273C26.1554 22.0273 25.4824 21.3543 25.4824 20.5273C25.4824 19.7003 26.1554 19.0273 26.9824 19.0273C27.8094 19.0273 28.4824 19.7003 28.4824 20.5273C28.4824 21.3543 27.8094 22.0273 26.9824 22.0273ZM24.9814 25.0273H20.7984L21.3784 21.7623C21.4354 21.4283 21.4074 21.2433 21.3854 21.1633C21.1974 20.4733 20.6354 20.0273 19.9534 20.0273C19.7404 20.0273 19.5254 20.0713 19.3134 20.1593C19.0594 20.2643 18.8104 20.5263 18.6314 20.8783L16.4384 25.0273H14.9824C13.3254 25.0273 11.9824 26.3703 11.9824 28.0273V32.0273C11.9824 33.6843 13.3254 35.0273 14.9824 35.0273H23.3614C25.2684 35.0273 26.9094 33.6813 27.2834 31.8113L27.9224 28.6153C28.2934 26.7593 26.8744 25.0273 24.9814 25.0273ZM13.9824 32.0273V28.0273C13.9824 27.4763 14.4314 27.0273 14.9824 27.0273H15.9824V33.0273H14.9824C14.4314 33.0273 13.9824 32.5783 13.9824 32.0273ZM25.9624 28.2233L25.3234 31.4193C25.1374 32.3513 24.3124 33.0273 23.3624 33.0273H17.9834V27.0273H24.9824C25.3944 27.0273 25.6434 27.2563 25.7554 27.3933C25.8674 27.5303 26.0434 27.8193 25.9624 28.2233ZM35.0104 25.6073C34.8214 25.9083 34.4954 26.0733 34.1644 26.0733C33.9814 26.0733 33.7964 26.0233 33.6314 25.9183L32.7304 25.3483C32.3964 25.7453 32.0184 26.1113 31.5994 26.4393C31.4164 26.5833 31.1994 26.6523 30.9844 26.6523C30.6874 26.6523 30.3924 26.5203 30.1964 26.2683C29.8554 25.8333 29.9324 25.2053 30.3674 24.8653C30.8594 24.4803 32.4834 23.0283 32.4834 20.5283C32.4834 17.4963 30.0154 15.0283 26.9834 15.0283C25.0984 15.0283 23.3654 15.9773 22.3474 17.5673C22.0494 18.0323 21.4304 18.1683 20.9664 17.8713L19.2814 16.7943C18.8164 16.4963 18.6794 15.8783 18.9774 15.4123C19.2744 14.9473 19.8914 14.8113 20.3584 15.1083L21.2564 15.6823C22.4584 14.2583 24.1364 13.3393 25.9824 13.0943V12.0283C25.9824 11.4753 26.4294 11.0283 26.9824 11.0283C27.5354 11.0283 27.9824 11.4753 27.9824 12.0283V13.0953C29.8424 13.3443 31.4894 14.2773 32.6594 15.6323L33.5554 15.0473C34.0184 14.7483 34.6374 14.8753 34.9404 15.3383C35.2424 15.8013 35.1114 16.4213 34.6494 16.7233L33.7544 17.3073C34.2204 18.2833 34.4824 19.3763 34.4824 20.5283C34.4824 21.6303 34.2454 22.6943 33.8014 23.6613L34.6994 24.2293C35.1664 24.5243 35.3054 25.1413 35.0104 25.6083V25.6073Z" fill="white"/>
</g>
<defs>
<clipPath id="clip0_894_2608">
<rect width="24" height="24" fill="white" transform="translate(11.9824 11.0273)"/>
</clipPath>
</defs>
</svg>
