<svg width="133" height="133" viewBox="0 0 133 133" fill="none" xmlns="http://www.w3.org/2000/svg">
<rect x="0.648438" y="0.941406" width="131.615" height="131.615" rx="21.8703" fill="#073B89"/>
<path d="M89.5839 44.4512C91.1022 44.4512 92.3344 45.6834 92.3344 47.2017V52.0345L86.8333 57.5356V49.9523H48.3254V72.2319L59.3276 61.2296L71.2321 73.1368L67.34 77.0234L59.3276 69.0137L48.3254 80.0133V88.4603H77.2971L79.2445 88.463L82.9 84.8048L86.5582 88.4603H86.8333V80.8742L92.3344 75.3731V91.2108C92.3344 92.7291 91.1022 93.9614 89.5839 93.9614H45.5748C44.062 93.9614 42.8242 92.7236 42.8242 91.2108V47.2017C42.8242 45.6834 44.0565 44.4512 45.5748 44.4512H89.5839ZM94.4744 57.6759L98.3637 61.5652L76.9698 82.9591L73.075 82.9536L73.0805 79.0698L94.4744 57.6759ZM77.2063 55.4534C79.4838 55.4534 81.3322 57.3018 81.3322 59.5793C81.3322 61.8568 79.4838 63.7051 77.2063 63.7051C74.9288 63.7051 73.0805 61.8568 73.0805 59.5793C73.0805 57.3018 74.9288 55.4534 77.2063 55.4534Z" fill="white"/>
</svg>
