<svg width="46" height="46" viewBox="0 0 46 46" fill="none" xmlns="http://www.w3.org/2000/svg">
<rect x="0.441406" y="0.154297" width="45.4491" height="45.4491" rx="7.55223" fill="#073B89"/>
<g clip-path="url(#clip0_894_2610)">
<path d="M35.1669 22.8629C35.167 21.8094 34.7514 20.7985 34.0106 20.0496C33.2697 19.3006 32.2633 18.8742 31.2099 18.8629C30.3332 17.1167 28.9148 15.7012 27.1669 14.8279C27.1156 13.8029 26.6723 12.8369 25.9287 12.1296C25.1851 11.4223 24.1982 11.0278 23.1719 11.0278C22.1456 11.0278 21.1587 11.4223 20.4151 12.1296C19.6715 12.8369 19.2282 13.8029 19.1769 14.8279C17.4246 15.7005 16.0025 17.1177 15.1239 18.8669C14.0753 18.8813 13.0744 19.3073 12.3372 20.0532C11.6001 20.799 11.1857 21.8048 11.1836 22.8535C11.1815 23.9022 11.5918 24.9097 12.326 25.6585C13.0602 26.4073 14.0594 26.8373 15.1079 26.8559C15.9829 28.6201 17.4098 30.0506 19.1719 30.9299C19.2232 31.9549 19.6665 32.9209 20.4101 33.6282C21.1537 34.3355 22.1406 34.73 23.1669 34.73C24.1932 34.73 25.1801 34.3355 25.9237 33.6282C26.6673 32.9209 27.1106 31.9549 27.1619 30.9299C28.924 30.0506 30.3509 28.6201 31.2259 26.8559C32.2753 26.8404 33.2766 26.4131 34.0138 25.6662C34.751 24.9192 35.1652 23.9124 35.1669 22.8629ZM23.1669 12.8789C23.5625 12.8789 23.9491 12.9962 24.278 13.216C24.6069 13.4357 24.8633 13.7481 25.0147 14.1135C25.166 14.479 25.2056 14.8811 25.1285 15.2691C25.0513 15.657 24.8608 16.0134 24.5811 16.2931C24.3014 16.5728 23.945 16.7633 23.5571 16.8405C23.1691 16.9176 22.767 16.878 22.4015 16.7267C22.0361 16.5753 21.7237 16.3189 21.504 15.99C21.2842 15.6611 21.1669 15.2745 21.1669 14.8789C21.1669 14.3485 21.3776 13.8398 21.7527 13.4647C22.1278 13.0896 22.6365 12.8789 23.1669 12.8789ZM13.1669 22.8629C13.1669 22.4673 13.2842 22.0807 13.504 21.7518C13.7237 21.4229 14.0361 21.1665 14.4015 21.0151C14.767 20.8638 15.1691 20.8242 15.5571 20.9013C15.945 20.9785 16.3014 21.169 16.5811 21.4487C16.8608 21.7284 17.0513 22.0848 17.1285 22.4727C17.2056 22.8607 17.166 23.2628 17.0147 23.6283C16.8633 23.9937 16.6069 24.3061 16.278 24.5258C15.9491 24.7456 15.5625 24.8629 15.1669 24.8629C14.6365 24.8629 14.1278 24.6522 13.7527 24.2771C13.3776 23.902 13.1669 23.3933 13.1669 22.8629ZM23.1669 32.8789C22.7713 32.8789 22.3847 32.7616 22.0558 32.5418C21.7269 32.3221 21.4705 32.0097 21.3191 31.6443C21.1678 31.2788 21.1282 30.8767 21.2053 30.4887C21.2825 30.1008 21.473 29.7444 21.7527 29.4647C22.0324 29.185 22.3888 28.9945 22.7767 28.9173C23.1647 28.8402 23.5668 28.8798 23.9323 29.0311C24.2977 29.1825 24.6101 29.4389 24.8298 29.7678C25.0496 30.0967 25.1669 30.4833 25.1669 30.8789C25.1669 31.4093 24.9562 31.918 24.5811 32.2931C24.206 32.6682 23.6973 32.8789 23.1669 32.8789ZM26.6449 28.9399C26.3034 28.316 25.8003 27.7954 25.1883 27.4328C24.5764 27.0701 23.8782 26.8788 23.1669 26.8788C22.4556 26.8788 21.7574 27.0701 21.1455 27.4328C20.5335 27.7954 20.0304 28.316 19.6889 28.9399C18.6115 28.3166 17.718 27.4197 17.0989 26.3399C17.7235 25.9996 18.2452 25.4975 18.6091 24.8863C18.973 24.275 19.1658 23.5772 19.1674 22.8658C19.1689 22.1545 18.9791 21.4558 18.6178 20.843C18.2565 20.2303 17.7371 19.7259 17.1139 19.3829C17.7327 18.3158 18.6206 17.4296 19.6889 16.8129C20.0304 17.4368 20.5335 17.9574 21.1455 18.32C21.7574 18.6827 22.4556 18.874 23.1669 18.874C23.8782 18.874 24.5764 18.6827 25.1883 18.32C25.8003 17.9574 26.3034 17.4368 26.6449 16.8129C27.7132 17.4296 28.6011 18.3158 29.2199 19.3829C28.5967 19.7259 28.0773 20.2303 27.716 20.843C27.3547 21.4558 27.1649 22.1545 27.1664 22.8658C27.168 23.5772 27.3608 24.275 27.7247 24.8863C28.0886 25.4975 28.6103 25.9996 29.2349 26.3399C28.6158 27.4197 27.7223 28.3166 26.6449 28.9399ZM31.1669 24.8619C30.7713 24.8619 30.3847 24.7446 30.0558 24.5248C29.7269 24.3051 29.4705 23.9927 29.3191 23.6273C29.1678 23.2618 29.1282 22.8597 29.2053 22.4717C29.2825 22.0838 29.473 21.7274 29.7527 21.4477C30.0324 21.168 30.3888 20.9775 30.7767 20.9003C31.1647 20.8232 31.5668 20.8628 31.9323 21.0141C32.2977 21.1655 32.6101 21.4219 32.8298 21.7508C33.0496 22.0797 33.1669 22.4663 33.1669 22.8619C33.1669 23.3923 32.9562 23.901 32.5811 24.2761C32.206 24.6512 31.6973 24.8619 31.1669 24.8619Z" fill="white"/>
</g>
<defs>
<clipPath id="clip0_894_2610">
<rect width="24" height="24" fill="white" transform="translate(11.166 10.8789)"/>
</clipPath>
</defs>
</svg>
