<svg width="17" height="18" viewBox="0 0 17 18" fill="none" xmlns="http://www.w3.org/2000/svg">
<path d="M15.086 10.4175L14.7485 10.2225C14.8235 9.8175 14.861 9.405 14.861 9C14.861 8.595 14.8235 8.19 14.7485 7.7775L15.086 7.5825C16.1585 6.9675 16.5335 5.5875 15.9185 4.5075C15.6185 3.99 15.131 3.615 14.5535 3.4575C13.976 3.3 13.3685 3.3825 12.8435 3.6825L12.506 3.8775C11.876 3.3375 11.1485 2.9175 10.361 2.64V2.25C10.361 1.0125 9.34846 0 8.11096 0C6.87346 0 5.86096 1.0125 5.86096 2.25V2.64C5.07346 2.9175 4.34596 3.3375 3.71596 3.8775L3.37846 3.6825C2.86096 3.3825 2.25346 3.3075 1.66846 3.4575C1.09096 3.615 0.603465 3.99 0.303465 4.5075C-0.311535 5.58 0.0559646 6.96 1.12846 7.5825L1.46596 7.7775C1.39096 8.1825 1.35346 8.595 1.35346 9C1.35346 9.405 1.39096 9.81 1.46596 10.2225L1.12846 10.4175C0.0559646 11.0325 -0.319035 12.4125 0.295965 13.4925C0.595965 14.01 1.08346 14.385 1.66096 14.5425C2.23846 14.7 2.84596 14.6175 3.37096 14.3175L3.70846 14.1225C4.33846 14.6625 5.06596 15.0825 5.85346 15.36V15.75C5.85346 16.9875 6.86596 18 8.10346 18C9.34096 18 10.3535 16.9875 10.3535 15.75V15.36C11.141 15.0825 11.8685 14.6625 12.4985 14.1225L12.836 14.3175C13.3535 14.6175 13.961 14.7 14.546 14.5425C15.1235 14.385 15.611 14.01 15.911 13.4925C16.526 12.42 16.1585 11.04 15.086 10.4175ZM13.166 7.6125C13.2935 8.0775 13.361 8.55 13.361 9.0075C13.361 9.465 13.2935 9.93 13.166 10.4025C13.076 10.7325 13.2185 11.0775 13.5185 11.25L14.336 11.7225C14.696 11.9325 14.816 12.39 14.6135 12.75C14.516 12.9225 14.351 13.05 14.156 13.1025C13.961 13.155 13.7585 13.1325 13.586 13.0275L12.7685 12.555C12.4685 12.3825 12.101 12.435 11.861 12.6825C11.1935 13.365 10.3535 13.8525 9.42346 14.0925C9.09346 14.175 8.86096 14.475 8.86096 14.82V15.765C8.86096 16.1775 8.52346 16.515 8.11096 16.515C7.69846 16.515 7.36096 16.1775 7.36096 15.765V14.82C7.36096 14.475 7.12846 14.1825 6.79846 14.0925C5.86846 13.8525 5.02846 13.365 4.36096 12.6825C4.21846 12.5325 4.02346 12.4575 3.82096 12.4575C3.69346 12.4575 3.56596 12.4875 3.44596 12.555L2.62846 13.0275C2.45596 13.125 2.25346 13.155 2.05846 13.1025C1.86346 13.05 1.70596 12.9225 1.60096 12.75C1.39846 12.39 1.51846 11.9325 1.87846 11.7225L2.69596 11.25C2.99596 11.0775 3.13846 10.7325 3.04846 10.4025C2.92096 9.9375 2.85346 9.465 2.85346 9.0075C2.85346 8.55 2.92096 8.085 3.04846 7.6125C3.13846 7.2825 2.99596 6.9375 2.69596 6.765L1.87846 6.2925C1.51846 6.0825 1.39846 5.625 1.60096 5.265C1.69846 5.0925 1.86346 4.965 2.05846 4.9125C2.25346 4.86 2.45596 4.89 2.62846 4.9875L3.44596 5.46C3.74596 5.6325 4.11346 5.58 4.35346 5.3325C5.02096 4.65 5.86096 4.1625 6.79096 3.9225C7.12096 3.84 7.35346 3.54 7.35346 3.195V2.25C7.35346 1.8375 7.69096 1.5 8.10346 1.5C8.51596 1.5 8.85346 1.8375 8.85346 2.25V3.195C8.85346 3.54 9.08596 3.8325 9.41596 3.9225C10.346 4.1625 11.186 4.65 11.8535 5.3325C12.0935 5.58 12.4685 5.6325 12.761 5.46L13.5785 4.9875C13.751 4.89 13.9535 4.86 14.1485 4.9125C14.3435 4.965 14.501 5.0925 14.606 5.265C14.8085 5.625 14.6885 6.0825 14.3285 6.2925L13.511 6.765C13.211 6.9375 13.0685 7.2825 13.1585 7.6125H13.166ZM9.44596 6.1575L8.24596 12.1575C8.17846 12.5175 7.86346 12.7575 7.51096 12.7575C7.46596 12.7575 7.41346 12.7575 7.36096 12.7425C6.95596 12.66 6.69346 12.27 6.77596 11.8575L7.97596 5.8575C8.05846 5.4525 8.44846 5.19 8.86096 5.2725C9.26596 5.355 9.52846 5.745 9.44596 6.1575ZM6.01846 8.145L5.11096 9.0525L6.01846 9.945C6.31096 10.2375 6.31096 10.71 6.01846 11.0025C5.86846 11.1525 5.68096 11.22 5.48596 11.22C5.29096 11.22 5.10346 11.145 4.95346 11.0025L4.04596 10.095C3.46096 9.51 3.46096 8.565 4.04596 7.9875L4.95346 7.08C5.24596 6.7875 5.71846 6.7875 6.01096 7.08C6.30346 7.3725 6.30346 7.845 6.01096 8.1375L6.01846 8.145ZM12.176 7.995C12.761 8.58 12.761 9.525 12.176 10.1025L11.2685 11.01C11.1185 11.16 10.931 11.2275 10.736 11.2275C10.541 11.2275 10.3535 11.1525 10.2035 11.01C9.91096 10.7175 9.91096 10.245 10.2035 9.9525L11.111 9.045L10.2035 8.145C9.91096 7.8525 9.91096 7.38 10.2035 7.0875C10.496 6.795 10.9685 6.795 11.261 7.0875L12.1685 7.995H12.176Z" fill="#073B89"/>
</svg>
