<svg width="19" height="18" viewBox="0 0 19 18" fill="none" xmlns="http://www.w3.org/2000/svg">
<path d="M15.2123 0H3.04247C1.36455 0 0 1.36455 0 3.04247V12.1699C0 13.8478 1.36455 15.2123 3.04247 15.2123H5.26575L8.11654 17.6128C8.4071 17.8715 8.77219 18 9.13425 18C9.48946 18 9.84238 17.876 10.117 17.6311L13.0423 15.2123H15.2123C16.8903 15.2123 18.2548 13.8478 18.2548 12.1699V3.04247C18.2548 1.36455 16.8903 0 15.2123 0ZM16.7336 12.1699C16.7336 13.0088 16.0513 13.6911 15.2123 13.6911H12.7692C12.5928 13.6911 12.4209 13.7527 12.2847 13.8653L9.11143 16.4628L6.03321 13.8698C5.8963 13.7542 5.72288 13.6911 5.54338 13.6911H3.04171C2.20275 13.6911 1.52047 13.0088 1.52047 12.1699V3.04247C1.52047 2.20351 2.20275 1.52123 3.04171 1.52123H15.2116C16.0505 1.52123 16.7328 2.20351 16.7328 3.04247L16.7336 12.1699ZM15.2123 4.5637C15.2123 4.98432 14.8723 5.32432 14.4517 5.32432H11.4093C10.9886 5.32432 10.6486 4.98432 10.6486 4.5637C10.6486 4.14308 10.9886 3.80308 11.4093 3.80308H14.4517C14.8723 3.80308 15.2123 4.14308 15.2123 4.5637ZM13.6911 10.6486C13.6911 11.0693 13.3511 11.4093 12.9305 11.4093H11.4093C10.9886 11.4093 10.6486 11.0693 10.6486 10.6486C10.6486 10.228 10.9886 9.88802 11.4093 9.88802H12.9305C13.3511 9.88802 13.6911 10.228 13.6911 10.6486ZM15.2123 7.60617C15.2123 8.02679 14.8723 8.36679 14.4517 8.36679H11.4093C10.9886 8.36679 10.6486 8.02679 10.6486 7.60617C10.6486 7.18555 10.9886 6.84555 11.4093 6.84555H14.4517C14.8723 6.84555 15.2123 7.18555 15.2123 7.60617ZM7.67082 4.30737C7.49816 3.55056 6.86076 3.04247 6.08493 3.04247C5.30911 3.04247 4.67171 3.55056 4.49905 4.30585L2.90099 11.2381C2.80668 11.6473 3.06224 12.0558 3.47146 12.1501C3.88143 12.2467 4.28912 11.9896 4.38343 11.5796L4.77211 9.89334H7.44188L7.84652 11.5857C7.93019 11.9348 8.24204 12.1699 8.58584 12.1699C8.64441 12.1699 8.70374 12.163 8.76307 12.1493C9.17152 12.0512 9.42404 11.6412 9.32592 11.2328L7.67082 4.30737ZM5.12275 8.37287L5.98149 4.64661C5.9891 4.61162 5.99975 4.56446 6.08417 4.56446C6.1686 4.56446 6.17925 4.61162 6.18914 4.65421L7.0783 8.37363L5.12275 8.37287Z" fill="#073B89"/>
</svg>
