<svg width="100" height="101" viewBox="0 0 100 101" fill="none" xmlns="http://www.w3.org/2000/svg">
<path d="M12.5 13.2637V84.097C12.5 85.2021 12.939 86.2619 13.7204 87.0433C14.5018 87.8247 15.5616 88.2637 16.6667 88.2637H87.5V79.9303H20.8333V13.2637H12.5Z" fill="white"/>
<path d="M63.7201 62.0434C64.1067 62.4306 64.5658 62.7379 65.0713 62.9475C65.5768 63.1571 66.1187 63.265 66.6659 63.265C67.2131 63.265 67.755 63.1571 68.2604 62.9475C68.7659 62.7379 69.2251 62.4306 69.6117 62.0434L90.4451 41.21L84.5534 35.3184L66.6659 53.2059L57.1117 43.6517C56.7251 43.2644 56.2659 42.9572 55.7604 42.7475C55.255 42.5379 54.7131 42.43 54.1659 42.43C53.6187 42.43 53.0768 42.5379 52.5713 42.7475C52.0658 42.9572 51.6067 43.2644 51.2201 43.6517L30.3867 64.485L36.2784 70.3767L54.1659 52.4892L63.7201 62.0434Z" fill="white"/>
</svg>
