<svg width="15" height="18" viewBox="0 0 15 18" fill="none" xmlns="http://www.w3.org/2000/svg">
<path d="M12.6364 0C12.4393 0 12.2502 0.0790176 12.1108 0.21967C11.9714 0.360322 11.8931 0.551088 11.8931 0.75C11.8931 2.96175 9.9731 3.75 8.1765 3.75H2.97327C2.18471 3.75 1.42845 4.06607 0.870852 4.62868C0.313255 5.19129 0 5.95435 0 6.75L0 8.25C0.00162353 8.69905 0.103664 9.14195 0.298519 9.54568C0.493373 9.94941 0.776016 10.3036 1.12538 10.5817L3.78052 16.5607C3.96935 16.9891 4.27718 17.353 4.66676 17.6084C5.05633 17.8638 5.51093 17.9999 5.97554 18C6.3452 17.9998 6.70893 17.9062 7.03363 17.728C7.35832 17.5497 7.63367 17.2923 7.83461 16.9792C8.03555 16.6662 8.1557 16.3074 8.18413 15.9355C8.21255 15.5636 8.14835 15.1905 7.99736 14.85L6.36206 11.25H8.1765C9.9731 11.25 11.8931 12.0383 11.8931 14.25C11.8931 14.4489 11.9714 14.6397 12.1108 14.7803C12.2502 14.921 12.4393 15 12.6364 15C12.8336 15 13.0226 14.921 13.162 14.7803C13.3014 14.6397 13.3797 14.4489 13.3797 14.25V7.5V0.75C13.3797 0.551088 13.3014 0.360322 13.162 0.21967C13.0226 0.0790176 12.8336 0 12.6364 0ZM6.64304 15.4643C6.69227 15.5764 6.71298 15.6993 6.70328 15.8216C6.69358 15.9439 6.65378 16.0618 6.58749 16.1647C6.5212 16.2675 6.43051 16.3521 6.32365 16.4106C6.21679 16.4692 6.09714 16.4999 5.97554 16.5C5.79818 16.4999 5.62467 16.4478 5.47609 16.3501C5.32751 16.2523 5.21025 16.1132 5.13856 15.9495L3.05132 11.25H4.72676L6.64304 15.4643ZM11.8931 10.95C10.8311 10.1244 9.51624 9.69985 8.1765 9.75H2.97327C2.57899 9.75 2.20086 9.59196 1.92206 9.31066C1.64326 9.02936 1.48664 8.64783 1.48664 8.25V6.75C1.48664 6.35218 1.64326 5.97064 1.92206 5.68934C2.20086 5.40804 2.57899 5.25 2.97327 5.25H8.1765C9.51578 5.30122 10.8306 4.87802 11.8931 4.05375V10.95Z" fill="#073B89"/>
<ellipse cx="13.3514" cy="7.69386" rx="0.870968" ry="1.01613" fill="#073B89"/>
</svg>
