<svg width="100" height="100" viewBox="0 0 100 100" fill="none" xmlns="http://www.w3.org/2000/svg">
<path d="M12.5 12.5V83.3333C12.5 84.4384 12.939 85.4982 13.7204 86.2796C14.5018 87.061 15.5616 87.5 16.6667 87.5H87.5V79.1667H20.8333V12.5H12.5Z" fill="#073B89"/>
<path d="M63.7201 61.2797C64.1067 61.667 64.5658 61.9742 65.0713 62.1838C65.5768 62.3935 66.1187 62.5014 66.6659 62.5014C67.2131 62.5014 67.755 62.3935 68.2604 62.1838C68.7659 61.9742 69.2251 61.667 69.6117 61.2797L90.4451 40.4464L84.5534 34.5547L66.6659 52.4422L57.1117 42.888C56.7251 42.5007 56.2659 42.1935 55.7604 41.9839C55.255 41.7742 54.7131 41.6663 54.1659 41.6663C53.6187 41.6663 53.0768 41.7742 52.5713 41.9839C52.0658 42.1935 51.6067 42.5007 51.2201 42.888L30.3867 63.7214L36.2784 69.613L54.1659 51.7255L63.7201 61.2797Z" fill="#073B89"/>
</svg>
