<svg width="15" height="18" viewBox="0 0 15 18" fill="none" xmlns="http://www.w3.org/2000/svg">
<path d="M6.31577 9.00062C6.52515 9.00062 6.72595 9.07964 6.87401 9.2203C7.02206 9.36097 7.10524 9.55174 7.10524 9.75067C7.10524 9.9496 7.02206 10.1404 6.87401 10.281C6.72595 10.4217 6.52515 10.5007 6.31577 10.5007H3.94736C3.73797 10.5007 3.53717 10.4217 3.38912 10.281C3.24106 10.1404 3.15788 9.9496 3.15788 9.75067C3.15788 9.55174 3.24106 9.36097 3.38912 9.2203C3.53717 9.07964 3.73797 9.00062 3.94736 9.00062H6.31577ZM11.0526 6.75046C11.0526 6.55154 10.9694 6.36076 10.8214 6.2201C10.6733 6.07944 10.4725 6.00041 10.2631 6.00041H3.94736C3.73797 6.00041 3.53717 6.07944 3.38912 6.2201C3.24106 6.36076 3.15788 6.55154 3.15788 6.75046C3.15788 6.94939 3.24106 7.14017 3.38912 7.28083C3.53717 7.42149 3.73797 7.50051 3.94736 7.50051H10.2631C10.4725 7.50051 10.6733 7.42149 10.8214 7.28083C10.9694 7.14017 11.0526 6.94939 11.0526 6.75046ZM3.94736 4.50031H10.2631C10.4725 4.50031 10.6733 4.42129 10.8214 4.28062C10.9694 4.13996 11.0526 3.94918 11.0526 3.75026C11.0526 3.55133 10.9694 3.36055 10.8214 3.21989C10.6733 3.07923 10.4725 3.00021 10.2631 3.00021H3.94736C3.73797 3.00021 3.53717 3.07923 3.38912 3.21989C3.24106 3.36055 3.15788 3.55133 3.15788 3.75026C3.15788 3.94918 3.24106 4.13996 3.38912 4.28062C3.53717 4.42129 3.73797 4.50031 3.94736 4.50031ZM13.421 14.584V17.4589C13.4211 17.5659 13.3877 17.6706 13.3252 17.7595C13.2626 17.8485 13.1737 17.9179 13.0697 17.9588C12.9656 17.9998 12.8511 18.0105 12.7407 17.9896C12.6302 17.9687 12.5288 17.9172 12.4492 17.8415L11.8421 17.2654L11.235 17.8415C11.1554 17.9172 11.0539 17.9687 10.9435 17.9896C10.833 18.0105 10.7185 17.9998 10.6145 17.9588C10.5104 17.9179 10.4215 17.8485 10.359 17.7595C10.2964 17.6706 10.2631 17.5659 10.2631 17.4589V14.584C9.66103 14.2553 9.19023 13.7467 8.92404 13.1374C8.65785 12.5281 8.61121 11.8522 8.79139 11.2151C8.97156 10.578 9.36844 10.0154 9.92021 9.61482C10.472 9.21428 11.1477 8.99834 11.8421 9.00062C12.1089 9.00379 12.3743 9.03958 12.6315 9.10713V3.75026C12.6315 3.15348 12.382 2.58114 11.9378 2.15916C11.4937 1.73717 10.8913 1.5001 10.2631 1.5001H3.94736C3.31921 1.5001 2.7168 1.73717 2.27263 2.15916C1.82847 2.58114 1.57894 3.15348 1.57894 3.75026V12.7509C1.57894 13.3477 1.82847 13.92 2.27263 14.342C2.7168 14.764 3.31921 15.001 3.94736 15.001H7.89471C8.10409 15.001 8.3049 15.0801 8.45295 15.2207C8.60101 15.3614 8.68418 15.5522 8.68418 15.7511C8.68418 15.95 8.60101 16.1408 8.45295 16.2814C8.3049 16.4221 8.10409 16.5011 7.89471 16.5011H3.94736C2.90084 16.4999 1.89754 16.1044 1.15754 15.4014C0.417537 14.6983 0.00125357 13.7451 0 12.7509V3.75026C0.00125357 2.75599 0.417537 1.80279 1.15754 1.09974C1.89754 0.396689 2.90084 0.00119097 3.94736 0L10.2631 0C11.3096 0.00119097 12.3129 0.396689 13.0529 1.09974C13.7929 1.80279 14.2092 2.75599 14.2105 3.75026V10.0372C14.5197 10.3671 14.7474 10.7586 14.8768 11.183C15.0062 11.6073 15.0341 12.0538 14.9584 12.4897C14.8827 12.9256 14.7054 13.3399 14.4394 13.7023C14.1734 14.0646 13.8254 14.3659 13.421 14.584ZM13.421 12.0008C13.421 11.7041 13.3284 11.4141 13.1549 11.1674C12.9814 10.9207 12.7348 10.7284 12.4463 10.6149C12.1578 10.5014 11.8403 10.4717 11.534 10.5295C11.2277 10.5874 10.9464 10.7303 10.7256 10.9401C10.5048 11.1499 10.3544 11.4172 10.2935 11.7082C10.2325 11.9992 10.2638 12.3008 10.3833 12.5749C10.5028 12.849 10.7052 13.0833 10.9649 13.2481C11.2245 13.4129 11.5298 13.5009 11.8421 13.5009C12.2608 13.5009 12.6624 13.3429 12.9585 13.0616C13.2547 12.7802 13.421 12.3987 13.421 12.0008Z" fill="#073B89"/>
</svg>
