<svg width="18" height="18" viewBox="0 0 18 18" fill="none" xmlns="http://www.w3.org/2000/svg">
<path d="M8.25 4.5H9.75C10.7843 4.5 11.625 3.65925 11.625 2.625V1.875C11.625 0.84075 10.7843 0 9.75 0H8.25C7.2165 0 6.375 0.84075 6.375 1.875V2.625C6.375 3.65925 7.2165 4.5 8.25 4.5ZM7.875 1.875C7.875 1.66875 8.043 1.5 8.25 1.5H9.75C9.95625 1.5 10.125 1.66875 10.125 1.875V2.625C10.125 2.83125 9.95625 3 9.75 3H8.25C8.043 3 7.875 2.83125 7.875 2.625V1.875ZM9.75 13.5H8.25C7.2165 13.5 6.375 14.3407 6.375 15.375V16.125C6.375 17.1593 7.2165 18 8.25 18H9.75C10.7843 18 11.625 17.1593 11.625 16.125V15.375C11.625 14.3407 10.7843 13.5 9.75 13.5ZM10.125 16.125C10.125 16.3312 9.95625 16.5 9.75 16.5H8.25C8.043 16.5 7.875 16.3312 7.875 16.125V15.375C7.875 15.1687 8.043 15 8.25 15H9.75C9.95625 15 10.125 15.1687 10.125 15.375V16.125ZM16.125 13.5H14.625C13.5907 13.5 12.75 14.3407 12.75 15.375V16.125C12.75 17.1593 13.5907 18 14.625 18H16.125C17.1593 18 18 17.1593 18 16.125V15.375C18 14.3407 17.1593 13.5 16.125 13.5ZM16.5 16.125C16.5 16.3312 16.3312 16.5 16.125 16.5H14.625C14.4187 16.5 14.25 16.3312 14.25 16.125V15.375C14.25 15.1687 14.4187 15 14.625 15H16.125C16.3312 15 16.5 15.1687 16.5 15.375V16.125ZM3.375 13.5H1.875C0.8415 13.5 0 14.3407 0 15.375V16.125C0 17.1593 0.8415 18 1.875 18H3.375C4.4085 18 5.25 17.1593 5.25 16.125V15.375C5.25 14.3407 4.4085 13.5 3.375 13.5ZM3.75 16.125C3.75 16.3312 3.582 16.5 3.375 16.5H1.875C1.668 16.5 1.5 16.3312 1.5 16.125V15.375C1.5 15.1687 1.668 15 1.875 15H3.375C3.582 15 3.75 15.1687 3.75 15.375V16.125ZM1.875 11.625V10.875C1.875 9.4275 3.0525 8.25 4.5 8.25H8.25V6.375C8.25 5.96025 8.586 5.625 9 5.625C9.414 5.625 9.75 5.96025 9.75 6.375V8.25H13.5C14.9475 8.25 16.125 9.4275 16.125 10.875V11.625C16.125 12.0398 15.7898 12.375 15.375 12.375C14.9602 12.375 14.625 12.0398 14.625 11.625V10.875C14.625 10.2548 14.1202 9.75 13.5 9.75H9.75V11.625C9.75 12.0398 9.414 12.375 9 12.375C8.586 12.375 8.25 12.0398 8.25 11.625V9.75H4.5C3.87975 9.75 3.375 10.2548 3.375 10.875V11.625C3.375 12.0398 3.039 12.375 2.625 12.375C2.211 12.375 1.875 12.0398 1.875 11.625Z" fill="#073B89"/>
</svg>
