<svg width="14" height="19" viewBox="0 0 14 19" fill="none" xmlns="http://www.w3.org/2000/svg">
<path d="M6.87633 9.16672C7.78283 9.16672 8.66898 8.89791 9.42271 8.39429C10.1764 7.89066 10.7639 7.17484 11.1108 6.33734C11.4577 5.49984 11.5485 4.57828 11.3716 3.68919C11.1948 2.80011 10.7583 1.98343 10.1173 1.34244C9.47626 0.701443 8.65958 0.26492 7.7705 0.0880701C6.88141 -0.0887799 5.95985 0.00198591 5.12235 0.34889C4.28485 0.695793 3.56903 1.28325 3.0654 2.03698C2.56178 2.79071 2.29297 3.67686 2.29297 4.58336C2.29418 5.79857 2.77746 6.96366 3.63674 7.82295C4.49603 8.68223 5.66112 9.16551 6.87633 9.16672ZM6.87633 1.52779C7.48067 1.52779 8.07143 1.707 8.57392 2.04275C9.0764 2.3785 9.46804 2.85571 9.69931 3.41405C9.93058 3.97238 9.99109 4.58675 9.87319 5.17948C9.75529 5.7722 9.46428 6.31665 9.03695 6.74398C8.60962 7.17131 8.06517 7.46233 7.47244 7.58023C6.87972 7.69813 6.26535 7.63761 5.70701 7.40635C5.14868 7.17508 4.67146 6.78344 4.33571 6.28095C3.99996 5.77846 3.82076 5.1877 3.82076 4.58336C3.82076 3.77297 4.14268 2.99578 4.71571 2.42275C5.28874 1.84971 6.06594 1.52779 6.87633 1.52779Z" fill="#073B89"/>
<path d="M6.87504 10.6953C5.05229 10.6973 3.30477 11.4223 2.01589 12.7112C0.727004 14.0001 0.00202191 15.7476 0 17.5704C0 17.773 0.0804814 17.9673 0.223739 18.1105C0.366997 18.2538 0.561296 18.3342 0.763894 18.3342C0.966491 18.3342 1.16079 18.2538 1.30405 18.1105C1.44731 17.9673 1.52779 17.773 1.52779 17.5704C1.52779 16.1522 2.09116 14.7921 3.09396 13.7893C4.09677 12.7865 5.45686 12.2231 6.87504 12.2231C8.29322 12.2231 9.65332 12.7865 10.6561 13.7893C11.6589 14.7921 12.2223 16.1522 12.2223 17.5704C12.2223 17.773 12.3028 17.9673 12.446 18.1105C12.5893 18.2538 12.7836 18.3342 12.9862 18.3342C13.1888 18.3342 13.3831 18.2538 13.5263 18.1105C13.6696 17.9673 13.7501 17.773 13.7501 17.5704C13.7481 15.7476 13.0231 14.0001 11.7342 12.7112C10.4453 11.4223 8.6978 10.6973 6.87504 10.6953Z" fill="#073B89"/>
</svg>
