<svg width="133" height="133" viewBox="0 0 133 133" fill="none" xmlns="http://www.w3.org/2000/svg">
<rect x="0.652344" y="0.830078" width="131.615" height="131.615" rx="21.8703" fill="#F0F5FF"/>
<path d="M87.4706 59.4825C87.4706 59.1858 87.2279 58.943 86.9312 58.943H82.8852C82.5885 58.943 82.3457 59.1858 82.3457 59.4825C82.3457 68.9433 74.6786 76.6105 65.2177 76.6105C55.7569 76.6105 48.0898 68.9433 48.0898 59.4825C48.0898 59.1858 47.847 58.943 47.5503 58.943H43.5043C43.2076 58.943 42.9648 59.1858 42.9648 59.4825C42.9648 70.8584 51.5019 80.2451 62.5204 81.5735V88.4787H52.7224C51.7986 88.4787 51.0568 89.443 51.0568 90.6365V93.0641C51.0568 93.3608 51.2456 93.6036 51.4749 93.6036H78.9606C79.1899 93.6036 79.3787 93.3608 79.3787 93.0641V90.6365C79.3787 89.443 78.6369 88.4787 77.7131 88.4787H67.6453V81.6073C78.792 80.3935 87.4706 70.9528 87.4706 59.4825ZM65.2177 70.9461C71.5497 70.9461 76.6814 65.8751 76.6814 59.6173V44.5123C76.6814 38.2546 71.5497 33.1836 65.2177 33.1836C58.8858 33.1836 53.7541 38.2546 53.7541 44.5123V59.6173C53.7541 65.8751 58.8858 70.9461 65.2177 70.9461ZM58.879 44.5123C58.879 41.1002 61.7045 38.3085 65.2177 38.3085C68.731 38.3085 71.5565 41.1002 71.5565 44.5123V59.6173C71.5565 63.0295 68.731 65.8212 65.2177 65.8212C61.7045 65.8212 58.879 63.0295 58.879 59.6173V44.5123Z" fill="#073B89"/>
</svg>
