<svg width="57" height="56" viewBox="0 0 57 56" fill="none" xmlns="http://www.w3.org/2000/svg">
<rect x="0.84375" y="-0.00976562" width="56" height="56" rx="8" fill="#F0F5FF"/>
<path d="M37.0938 22.7402H20.5938C20.1795 22.7402 19.8438 23.076 19.8438 23.4902V35.4902C19.8438 35.9044 20.1795 36.2402 20.5938 36.2402H37.0938C37.508 36.2402 37.8438 35.9044 37.8438 35.4902V23.4902C37.8438 23.076 37.508 22.7402 37.0938 22.7402Z" stroke="#073B89" stroke-width="2" stroke-linecap="round" stroke-linejoin="round"/>
<path d="M32.5938 22.7402V21.2402C32.5938 20.8424 32.4357 20.4609 32.1544 20.1796C31.8731 19.8983 31.4916 19.7402 31.0938 19.7402H26.5938C26.1959 19.7402 25.8144 19.8983 25.5331 20.1796C25.2518 20.4609 25.0938 20.8424 25.0938 21.2402V22.7402" stroke="#073B89" stroke-width="2" stroke-linecap="round" stroke-linejoin="round"/>
<path d="M19.8438 30.9902H37.8438" stroke="#073B89" stroke-width="2" stroke-linecap="round" stroke-linejoin="round"/>
</svg>
