<svg width="18" height="18" viewBox="0 0 18 18" fill="none" xmlns="http://www.w3.org/2000/svg">
<path d="M18 7.5V14.25C17.9988 15.2442 17.6033 16.1973 16.9003 16.9003C16.1973 17.6033 15.2442 17.9988 14.25 18H3.75C2.7558 17.9988 1.80267 17.6033 1.09966 16.9003C0.396661 16.1973 0.00119089 15.2442 0 14.25V3.75C0.00119089 2.7558 0.396661 1.80267 1.09966 1.09966C1.80267 0.396661 2.7558 0.00119089 3.75 0H8.25C9.2442 0.00119089 10.1973 0.396661 10.9003 1.09966C11.6033 1.80267 11.9988 2.7558 12 3.75H14.25C15.2442 3.75119 16.1973 4.14666 16.9003 4.84966C17.6033 5.55267 17.9988 6.5058 18 7.5ZM3.75 16.5H10.5V3.75C10.5 3.15326 10.2629 2.58097 9.84099 2.15901C9.41903 1.73705 8.84674 1.5 8.25 1.5H3.75C3.15326 1.5 2.58097 1.73705 2.15901 2.15901C1.73705 2.58097 1.5 3.15326 1.5 3.75V14.25C1.5 14.8467 1.73705 15.419 2.15901 15.841C2.58097 16.2629 3.15326 16.5 3.75 16.5ZM16.5 7.5C16.5 6.90326 16.2629 6.33097 15.841 5.90901C15.419 5.48705 14.8467 5.25 14.25 5.25H12V16.5H14.25C14.8467 16.5 15.419 16.2629 15.841 15.841C16.2629 15.419 16.5 14.8467 16.5 14.25V7.5ZM14.25 9.75C14.1017 9.75 13.9567 9.79399 13.8333 9.8764C13.71 9.95881 13.6139 10.0759 13.5571 10.213C13.5003 10.35 13.4855 10.5008 13.5144 10.6463C13.5434 10.7918 13.6148 10.9254 13.7197 11.0303C13.8246 11.1352 13.9582 11.2066 14.1037 11.2356C14.2492 11.2645 14.4 11.2497 14.537 11.1929C14.6741 11.1361 14.7912 11.04 14.8736 10.9167C14.956 10.7933 15 10.6483 15 10.5C15 10.3011 14.921 10.1103 14.7803 9.96967C14.6397 9.82902 14.4489 9.75 14.25 9.75ZM14.25 12.75C14.1017 12.75 13.9567 12.794 13.8333 12.8764C13.71 12.9588 13.6139 13.0759 13.5571 13.213C13.5003 13.35 13.4855 13.5008 13.5144 13.6463C13.5434 13.7918 13.6148 13.9254 13.7197 14.0303C13.8246 14.1352 13.9582 14.2066 14.1037 14.2356C14.2492 14.2645 14.4 14.2497 14.537 14.1929C14.6741 14.1361 14.7912 14.04 14.8736 13.9167C14.956 13.7933 15 13.6483 15 13.5C15 13.3011 14.921 13.1103 14.7803 12.9697C14.6397 12.829 14.4489 12.75 14.25 12.75ZM14.25 6.75C14.1017 6.75 13.9567 6.79399 13.8333 6.8764C13.71 6.95881 13.6139 7.07594 13.5571 7.21299C13.5003 7.35003 13.4855 7.50083 13.5144 7.64632C13.5434 7.7918 13.6148 7.92544 13.7197 8.03033C13.8246 8.13522 13.9582 8.20665 14.1037 8.23559C14.2492 8.26453 14.4 8.24967 14.537 8.19291C14.6741 8.13614 14.7912 8.04002 14.8736 7.91668C14.956 7.79334 15 7.64834 15 7.5C15 7.30109 14.921 7.11032 14.7803 6.96967C14.6397 6.82902 14.4489 6.75 14.25 6.75Z" fill="#073B89"/>
<path d="M4.07031 8.125C3.92198 8.125 3.77697 8.16899 3.65364 8.2514C3.5303 8.33381 3.43417 8.45094 3.3774 8.58799C3.32064 8.72503 3.30578 8.87583 3.33472 9.02132C3.36366 9.1668 3.43509 9.30044 3.53998 9.40533C3.64487 9.51022 3.77851 9.58165 3.92399 9.61059C4.06948 9.63953 4.22028 9.62467 4.35732 9.56791C4.49437 9.51114 4.6115 9.41501 4.69392 9.29168C4.77633 9.16834 4.82031 9.02334 4.82031 8.875C4.82031 8.67609 4.7413 8.48532 4.60064 8.34467C4.45999 8.20402 4.26923 8.125 4.07031 8.125ZM4.07031 11.125C3.92198 11.125 3.77697 11.169 3.65364 11.2514C3.5303 11.3338 3.43417 11.4509 3.3774 11.588C3.32064 11.725 3.30578 11.8758 3.33472 12.0213C3.36366 12.1668 3.43509 12.3004 3.53998 12.4053C3.64487 12.5102 3.77851 12.5817 3.92399 12.6106C4.06948 12.6395 4.22028 12.6247 4.35732 12.5679C4.49437 12.5111 4.6115 12.415 4.69392 12.2917C4.77633 12.1683 4.82031 12.0233 4.82031 11.875C4.82031 11.6761 4.7413 11.4853 4.60064 11.3447C4.45999 11.204 4.26923 11.125 4.07031 11.125ZM4.07031 5.125C3.92198 5.125 3.77697 5.16899 3.65364 5.2514C3.5303 5.33381 3.43417 5.45094 3.3774 5.58799C3.32064 5.72503 3.30578 5.87583 3.33472 6.02132C3.36366 6.1668 3.43509 6.30044 3.53998 6.40533C3.64487 6.51022 3.77851 6.58165 3.92399 6.61059C4.06948 6.63953 4.22028 6.62467 4.35732 6.56791C4.49437 6.51114 4.6115 6.41501 4.69392 6.29168C4.77633 6.16834 4.82031 6.02334 4.82031 5.875C4.82031 5.67609 4.7413 5.48532 4.60064 5.34467C4.45999 5.20402 4.26923 5.125 4.07031 5.125Z" fill="#073B89"/>
<path d="M7.94531 8.125C7.79698 8.125 7.65197 8.16899 7.52864 8.2514C7.4053 8.33381 7.30917 8.45094 7.2524 8.58799C7.19564 8.72503 7.18078 8.87583 7.20972 9.02132C7.23866 9.1668 7.31009 9.30044 7.41498 9.40533C7.51987 9.51022 7.65351 9.58165 7.79899 9.61059C7.94448 9.63953 8.09528 9.62467 8.23232 9.56791C8.36937 9.51114 8.4865 9.41501 8.56892 9.29168C8.65133 9.16834 8.69531 9.02334 8.69531 8.875C8.69531 8.67609 8.6163 8.48532 8.47564 8.34467C8.33499 8.20402 8.14423 8.125 7.94531 8.125ZM7.94531 11.125C7.79698 11.125 7.65197 11.169 7.52864 11.2514C7.4053 11.3338 7.30917 11.4509 7.2524 11.588C7.19564 11.725 7.18078 11.8758 7.20972 12.0213C7.23866 12.1668 7.31009 12.3004 7.41498 12.4053C7.51987 12.5102 7.65351 12.5817 7.79899 12.6106C7.94448 12.6395 8.09528 12.6247 8.23232 12.5679C8.36937 12.5111 8.4865 12.415 8.56892 12.2917C8.65133 12.1683 8.69531 12.0233 8.69531 11.875C8.69531 11.6761 8.6163 11.4853 8.47564 11.3447C8.33499 11.204 8.14423 11.125 7.94531 11.125ZM7.94531 5.125C7.79698 5.125 7.65197 5.16899 7.52864 5.2514C7.4053 5.33381 7.30917 5.45094 7.2524 5.58799C7.19564 5.72503 7.18078 5.87583 7.20972 6.02132C7.23866 6.1668 7.31009 6.30044 7.41498 6.40533C7.51987 6.51022 7.65351 6.58165 7.79899 6.61059C7.94448 6.63953 8.09528 6.62467 8.23232 6.56791C8.36937 6.51114 8.4865 6.41501 8.56892 6.29168C8.65133 6.16834 8.69531 6.02334 8.69531 5.875C8.69531 5.67609 8.6163 5.48532 8.47564 5.34467C8.33499 5.20402 8.14423 5.125 7.94531 5.125Z" fill="#073B89"/>
</svg>
