<svg width="133" height="133" viewBox="0 0 133 133" fill="none" xmlns="http://www.w3.org/2000/svg">
<rect x="0.652344" y="0.417969" width="131.615" height="131.615" rx="21.8703" fill="#F0F5FF"/>
<path d="M82.7259 65.3756L94.7758 95.5002H88.8741L85.585 87.2844H74.3842L71.1006 95.5002H65.2017L77.2487 65.3756H82.7259ZM59.4479 43.4668V48.944H75.8794V54.4212H70.4899C68.3774 60.7804 65.0058 66.6491 60.5762 71.6771C62.5515 73.4397 64.6941 75.0054 66.9735 76.3519L64.9168 81.495C61.9743 79.8261 59.2222 77.8417 56.7093 75.5769C51.817 80.0045 46.0234 83.3194 39.7272 85.2934L38.2593 80.0107C43.6539 78.2906 48.625 75.4518 52.8478 71.6798C49.7222 68.1414 47.1189 64.1741 45.1168 59.8984H51.2512C52.7776 62.716 54.6078 65.3581 56.7093 67.7773C60.1328 63.8313 62.8309 59.3104 64.6786 54.4239L37.5391 54.4212V48.944H53.9707V43.4668H59.4479ZM79.9873 73.2764L76.5723 81.8072H83.3969L79.9873 73.2764Z" fill="#073B89"/>
</svg>
