<svg width="18" height="20" viewBox="0 0 18 20" fill="none" xmlns="http://www.w3.org/2000/svg">
<path d="M14.125 0.891667H5.875C4.38767 0.891667 3.11595 1.82811 2.61712 3.14167H1.375C1.10817 3.14167 0.891667 3.35817 0.891667 3.625C0.891667 3.89183 1.10817 4.10833 1.375 4.10833H2.40208C2.39531 4.1962 2.39167 4.28517 2.39167 4.375V6.14167H1.375C1.10817 6.14167 0.891667 6.35817 0.891667 6.625C0.891667 6.89183 1.10817 7.10833 1.375 7.10833H2.39167V9.51667H1.375C1.10817 9.51667 0.891667 9.73317 0.891667 10C0.891667 10.2668 1.10817 10.4833 1.375 10.4833H2.39167V12.8917H1.375C1.10817 12.8917 0.891667 13.1082 0.891667 13.375C0.891667 13.6418 1.10817 13.8583 1.375 13.8583H2.39167V15.625C2.39167 15.7148 2.39531 15.8038 2.40208 15.8917H1.375C1.10817 15.8917 0.891667 16.1082 0.891667 16.375C0.891667 16.6418 1.10817 16.8583 1.375 16.8583H2.61712C3.11595 18.1719 4.38767 19.1083 5.875 19.1083H14.125C16.0456 19.1083 17.6083 17.5456 17.6083 15.625V4.375C17.6083 2.45442 16.0456 0.891667 14.125 0.891667ZM16.6417 15.625C16.6417 17.0127 15.5127 18.1417 14.125 18.1417H5.875C4.48733 18.1417 3.35833 17.0127 3.35833 15.625V4.375C3.35833 2.98733 4.48733 1.85833 5.875 1.85833H14.125C15.5127 1.85833 16.6417 2.98733 16.6417 4.375V15.625ZM10 10.1083C11.3003 10.1083 12.3583 9.05033 12.3583 7.75C12.3583 6.44967 11.3003 5.39167 10 5.39167C8.69967 5.39167 7.64167 6.44967 7.64167 7.75C7.64167 9.05033 8.69967 10.1083 10 10.1083ZM10 6.35833C10.7674 6.35833 11.3917 6.98258 11.3917 7.75C11.3917 8.51742 10.7674 9.14167 10 9.14167C9.23258 9.14167 8.60833 8.51742 8.60833 7.75C8.60833 6.98258 9.23258 6.35833 10 6.35833ZM13.8583 14.875V14.5C13.8583 12.3724 12.1276 10.6417 10 10.6417C7.87242 10.6417 6.14167 12.3724 6.14167 14.5V14.875C6.14167 15.1418 6.35817 15.3583 6.625 15.3583C6.89183 15.3583 7.10833 15.1418 7.10833 14.875V14.5C7.10833 12.9053 8.40533 11.6083 10 11.6083C11.5947 11.6083 12.8917 12.9053 12.8917 14.5V14.875C12.8917 15.1418 13.1082 15.3583 13.375 15.3583C13.6418 15.3583 13.8583 15.1418 13.8583 14.875Z" fill="#073B89" stroke="#073B89" stroke-width="0.216667"/>
</svg>
